<mxfile host="Electron" agent="Mozilla/5.0 (X11; Linux x86_64) AppleWebKit/537.36 (KHTML, like Gecko) draw.io/25.0.2 Chrome/128.0.6613.186 Electron/32.2.5 Safari/537.36" version="25.0.2" pages="5">
  <diagram name="Page-1" id="eXXzIW1A5MDKE419mN14">
    <mxGraphModel dx="2689" dy="1681" grid="1" gridSize="10" guides="1" tooltips="1" connect="1" arrows="1" fold="1" page="1" pageScale="1" pageWidth="850" pageHeight="1100" math="0" shadow="0">
      <root>
        <mxCell id="0" />
        <mxCell id="1" parent="0" />
        <mxCell id="QzoHPegy9wZRgAVX_BEd-9" value="JDozerOpenApiLoad" style="swimlane;fontStyle=1;align=center;verticalAlign=top;childLayout=stackLayout;horizontal=1;startSize=26;horizontalStack=0;resizeParent=1;resizeParentMax=0;resizeLast=0;collapsible=1;marginBottom=0;whiteSpace=wrap;html=1;fontFamily=Courier New;" parent="1" vertex="1">
          <mxGeometry x="90" y="392" width="430" height="346" as="geometry" />
        </mxCell>
        <mxCell id="QzoHPegy9wZRgAVX_BEd-10" value="+ contract: any" style="text;strokeColor=none;fillColor=none;align=left;verticalAlign=top;spacingLeft=4;spacingRight=4;overflow=hidden;rotatable=0;points=[[0,0.5],[1,0.5]];portConstraint=eastwest;whiteSpace=wrap;html=1;fontFamily=Courier New;" parent="QzoHPegy9wZRgAVX_BEd-9" vertex="1">
          <mxGeometry y="26" width="430" height="26" as="geometry" />
        </mxCell>
        <mxCell id="QzoHPegy9wZRgAVX_BEd-11" value="" style="line;strokeWidth=1;fillColor=none;align=left;verticalAlign=middle;spacingTop=-1;spacingLeft=3;spacingRight=3;rotatable=0;labelPosition=right;points=[];portConstraint=eastwest;strokeColor=inherit;" parent="QzoHPegy9wZRgAVX_BEd-9" vertex="1">
          <mxGeometry y="52" width="430" height="8" as="geometry" />
        </mxCell>
        <mxCell id="QzoHPegy9wZRgAVX_BEd-12" value="+ JDozerOpenApiLoad(contract: any): void" style="text;strokeColor=none;fillColor=none;align=left;verticalAlign=top;spacingLeft=4;spacingRight=4;overflow=hidden;rotatable=0;points=[[0,0.5],[1,0.5]];portConstraint=eastwest;whiteSpace=wrap;html=1;fontFamily=Courier New;" parent="QzoHPegy9wZRgAVX_BEd-9" vertex="1">
          <mxGeometry y="60" width="430" height="26" as="geometry" />
        </mxCell>
        <mxCell id="QzoHPegy9wZRgAVX_BEd-13" value="+ getRequestBodySchema(operationId: string): JsonSchema" style="text;strokeColor=none;fillColor=none;align=left;verticalAlign=top;spacingLeft=4;spacingRight=4;overflow=hidden;rotatable=0;points=[[0,0.5],[1,0.5]];portConstraint=eastwest;whiteSpace=wrap;html=1;fontFamily=Courier New;" parent="QzoHPegy9wZRgAVX_BEd-9" vertex="1">
          <mxGeometry y="86" width="430" height="26" as="geometry" />
        </mxCell>
        <mxCell id="QzoHPegy9wZRgAVX_BEd-14" value="+ getResponsesSchemas(operationId: string): any" style="text;strokeColor=none;fillColor=none;align=left;verticalAlign=top;spacingLeft=4;spacingRight=4;overflow=hidden;rotatable=0;points=[[0,0.5],[1,0.5]];portConstraint=eastwest;whiteSpace=wrap;html=1;fontFamily=Courier New;" parent="QzoHPegy9wZRgAVX_BEd-9" vertex="1">
          <mxGeometry y="112" width="430" height="26" as="geometry" />
        </mxCell>
        <mxCell id="QzoHPegy9wZRgAVX_BEd-15" value="+ getOperationIds(): string[]" style="text;strokeColor=none;fillColor=none;align=left;verticalAlign=top;spacingLeft=4;spacingRight=4;overflow=hidden;rotatable=0;points=[[0,0.5],[1,0.5]];portConstraint=eastwest;whiteSpace=wrap;html=1;fontFamily=Courier New;" parent="QzoHPegy9wZRgAVX_BEd-9" vertex="1">
          <mxGeometry y="138" width="430" height="26" as="geometry" />
        </mxCell>
        <mxCell id="QzoHPegy9wZRgAVX_BEd-16" value="+ getParametersSchema(operationId: string): any" style="text;strokeColor=none;fillColor=none;align=left;verticalAlign=top;spacingLeft=4;spacingRight=4;overflow=hidden;rotatable=0;points=[[0,0.5],[1,0.5]];portConstraint=eastwest;whiteSpace=wrap;html=1;fontFamily=Courier New;" parent="QzoHPegy9wZRgAVX_BEd-9" vertex="1">
          <mxGeometry y="164" width="430" height="26" as="geometry" />
        </mxCell>
        <mxCell id="QzoHPegy9wZRgAVX_BEd-17" value="+ getPath(operationId: string): string" style="text;strokeColor=none;fillColor=none;align=left;verticalAlign=top;spacingLeft=4;spacingRight=4;overflow=hidden;rotatable=0;points=[[0,0.5],[1,0.5]];portConstraint=eastwest;whiteSpace=wrap;html=1;fontFamily=Courier New;" parent="QzoHPegy9wZRgAVX_BEd-9" vertex="1">
          <mxGeometry y="190" width="430" height="26" as="geometry" />
        </mxCell>
        <mxCell id="QzoHPegy9wZRgAVX_BEd-18" value="+ getMethod(operationId: string): string" style="text;strokeColor=none;fillColor=none;align=left;verticalAlign=top;spacingLeft=4;spacingRight=4;overflow=hidden;rotatable=0;points=[[0,0.5],[1,0.5]];portConstraint=eastwest;whiteSpace=wrap;html=1;fontFamily=Courier New;" parent="QzoHPegy9wZRgAVX_BEd-9" vertex="1">
          <mxGeometry y="216" width="430" height="26" as="geometry" />
        </mxCell>
        <mxCell id="QzoHPegy9wZRgAVX_BEd-19" value="+ getServers(): any[]" style="text;strokeColor=none;fillColor=none;align=left;verticalAlign=top;spacingLeft=4;spacingRight=4;overflow=hidden;rotatable=0;points=[[0,0.5],[1,0.5]];portConstraint=eastwest;whiteSpace=wrap;html=1;fontFamily=Courier New;" parent="QzoHPegy9wZRgAVX_BEd-9" vertex="1">
          <mxGeometry y="242" width="430" height="26" as="geometry" />
        </mxCell>
        <mxCell id="QzoHPegy9wZRgAVX_BEd-20" value="+ getOperation(operationId: string): Operation" style="text;strokeColor=#B09500;fillColor=#e3c800;align=left;verticalAlign=top;spacingLeft=4;spacingRight=4;overflow=hidden;rotatable=0;points=[[0,0.5],[1,0.5]];portConstraint=eastwest;whiteSpace=wrap;html=1;fontFamily=Courier New;fontColor=#000000;" parent="QzoHPegy9wZRgAVX_BEd-9" vertex="1">
          <mxGeometry y="268" width="430" height="26" as="geometry" />
        </mxCell>
        <mxCell id="QzoHPegy9wZRgAVX_BEd-48" value="- toJson(): any&amp;lt;JSON&amp;gt;" style="text;strokeColor=none;fillColor=none;align=left;verticalAlign=top;spacingLeft=4;spacingRight=4;overflow=hidden;rotatable=0;points=[[0,0.5],[1,0.5]];portConstraint=eastwest;whiteSpace=wrap;html=1;fontFamily=Courier New;" parent="QzoHPegy9wZRgAVX_BEd-9" vertex="1">
          <mxGeometry y="294" width="430" height="26" as="geometry" />
        </mxCell>
        <mxCell id="QzoHPegy9wZRgAVX_BEd-49" value="- refParser(): any&amp;lt;JSON&amp;gt;" style="text;strokeColor=none;fillColor=none;align=left;verticalAlign=top;spacingLeft=4;spacingRight=4;overflow=hidden;rotatable=0;points=[[0,0.5],[1,0.5]];portConstraint=eastwest;whiteSpace=wrap;html=1;fontFamily=Courier New;" parent="QzoHPegy9wZRgAVX_BEd-9" vertex="1">
          <mxGeometry y="320" width="430" height="26" as="geometry" />
        </mxCell>
        <mxCell id="QzoHPegy9wZRgAVX_BEd-21" value="JDozerFuzzerArtilleryCfg" style="swimlane;fontStyle=1;align=center;verticalAlign=top;childLayout=stackLayout;horizontal=1;startSize=26;horizontalStack=0;resizeParent=1;resizeParentMax=0;resizeLast=0;collapsible=1;marginBottom=0;whiteSpace=wrap;html=1;fontFamily=Courier New;" parent="1" vertex="1">
          <mxGeometry x="-770" y="450" width="580" height="216" as="geometry" />
        </mxCell>
        <mxCell id="QzoHPegy9wZRgAVX_BEd-22" value="- fuzzer: Fuzzer" style="text;strokeColor=none;fillColor=none;align=left;verticalAlign=top;spacingLeft=4;spacingRight=4;overflow=hidden;rotatable=0;points=[[0,0.5],[1,0.5]];portConstraint=eastwest;whiteSpace=wrap;html=1;fontFamily=Courier New;" parent="QzoHPegy9wZRgAVX_BEd-21" vertex="1">
          <mxGeometry y="26" width="580" height="26" as="geometry" />
        </mxCell>
        <mxCell id="QzoHPegy9wZRgAVX_BEd-31" value="- redis: RedisService" style="text;strokeColor=none;fillColor=none;align=left;verticalAlign=top;spacingLeft=4;spacingRight=4;overflow=hidden;rotatable=0;points=[[0,0.5],[1,0.5]];portConstraint=eastwest;whiteSpace=wrap;html=1;fontFamily=Courier New;" parent="QzoHPegy9wZRgAVX_BEd-21" vertex="1">
          <mxGeometry y="52" width="580" height="26" as="geometry" />
        </mxCell>
        <mxCell id="QzoHPegy9wZRgAVX_BEd-26" value="- artilleryCfg: any" style="text;strokeColor=none;fillColor=none;align=left;verticalAlign=top;spacingLeft=4;spacingRight=4;overflow=hidden;rotatable=0;points=[[0,0.5],[1,0.5]];portConstraint=eastwest;whiteSpace=wrap;html=1;fontFamily=Courier New;" parent="QzoHPegy9wZRgAVX_BEd-21" vertex="1">
          <mxGeometry y="78" width="580" height="26" as="geometry" />
        </mxCell>
        <mxCell id="QzoHPegy9wZRgAVX_BEd-23" value="" style="line;strokeWidth=1;fillColor=none;align=left;verticalAlign=middle;spacingTop=-1;spacingLeft=3;spacingRight=3;rotatable=0;labelPosition=right;points=[];portConstraint=eastwest;strokeColor=inherit;" parent="QzoHPegy9wZRgAVX_BEd-21" vertex="1">
          <mxGeometry y="104" width="580" height="8" as="geometry" />
        </mxCell>
        <mxCell id="QzoHPegy9wZRgAVX_BEd-24" value="+ JDozerFuzzerArtilleryCfg(fuzzer: Fuzzer, redis: RedisService): void" style="text;strokeColor=none;fillColor=none;align=left;verticalAlign=top;spacingLeft=4;spacingRight=4;overflow=hidden;rotatable=0;points=[[0,0.5],[1,0.5]];portConstraint=eastwest;whiteSpace=wrap;html=1;fontFamily=Courier New;" parent="QzoHPegy9wZRgAVX_BEd-21" vertex="1">
          <mxGeometry y="112" width="580" height="26" as="geometry" />
        </mxCell>
        <mxCell id="QzoHPegy9wZRgAVX_BEd-27" value="+ build(): string:YAML" style="text;strokeColor=none;fillColor=none;align=left;verticalAlign=top;spacingLeft=4;spacingRight=4;overflow=hidden;rotatable=0;points=[[0,0.5],[1,0.5]];portConstraint=eastwest;whiteSpace=wrap;html=1;fontFamily=Courier New;" parent="QzoHPegy9wZRgAVX_BEd-21" vertex="1">
          <mxGeometry y="138" width="580" height="26" as="geometry" />
        </mxCell>
        <mxCell id="QzoHPegy9wZRgAVX_BEd-28" value="- getScenarios(operationId: string): any" style="text;strokeColor=none;fillColor=none;align=left;verticalAlign=top;spacingLeft=4;spacingRight=4;overflow=hidden;rotatable=0;points=[[0,0.5],[1,0.5]];portConstraint=eastwest;whiteSpace=wrap;html=1;fontFamily=Courier New;" parent="QzoHPegy9wZRgAVX_BEd-21" vertex="1">
          <mxGeometry y="164" width="580" height="26" as="geometry" />
        </mxCell>
        <mxCell id="QzoHPegy9wZRgAVX_BEd-29" value="- getFlows(operationId: string): any" style="text;strokeColor=none;fillColor=none;align=left;verticalAlign=top;spacingLeft=4;spacingRight=4;overflow=hidden;rotatable=0;points=[[0,0.5],[1,0.5]];portConstraint=eastwest;whiteSpace=wrap;html=1;fontFamily=Courier New;" parent="QzoHPegy9wZRgAVX_BEd-21" vertex="1">
          <mxGeometry y="190" width="580" height="26" as="geometry" />
        </mxCell>
        <mxCell id="QzoHPegy9wZRgAVX_BEd-43" value="JDozerFuzzer" style="swimlane;fontStyle=1;align=center;verticalAlign=top;childLayout=stackLayout;horizontal=1;startSize=26;horizontalStack=0;resizeParent=1;resizeParentMax=0;resizeLast=0;collapsible=1;marginBottom=0;whiteSpace=wrap;html=1;fontFamily=Courier New;fillColor=#6a00ff;strokeColor=#3700CC;fontColor=#ffffff;" parent="1" vertex="1">
          <mxGeometry x="-970" y="-80" width="580" height="216" as="geometry" />
        </mxCell>
        <mxCell id="QzoHPegy9wZRgAVX_BEd-47" value="- redis: RedisService" style="text;strokeColor=none;fillColor=none;align=left;verticalAlign=top;spacingLeft=4;spacingRight=4;overflow=hidden;rotatable=0;points=[[0,0.5],[1,0.5]];portConstraint=eastwest;whiteSpace=wrap;html=1;fontFamily=Courier New;" parent="QzoHPegy9wZRgAVX_BEd-43" vertex="1">
          <mxGeometry y="26" width="580" height="26" as="geometry" />
        </mxCell>
        <mxCell id="QzoHPegy9wZRgAVX_BEd-54" value="- fuzzer: Fuzzer" style="text;strokeColor=none;fillColor=none;align=left;verticalAlign=top;spacingLeft=4;spacingRight=4;overflow=hidden;rotatable=0;points=[[0,0.5],[1,0.5]];portConstraint=eastwest;whiteSpace=wrap;html=1;fontFamily=Courier New;" parent="QzoHPegy9wZRgAVX_BEd-43" vertex="1">
          <mxGeometry y="52" width="580" height="26" as="geometry" />
        </mxCell>
        <mxCell id="QzoHPegy9wZRgAVX_BEd-45" value="" style="line;strokeWidth=1;fillColor=none;align=left;verticalAlign=middle;spacingTop=-1;spacingLeft=3;spacingRight=3;rotatable=0;labelPosition=right;points=[];portConstraint=eastwest;strokeColor=inherit;" parent="QzoHPegy9wZRgAVX_BEd-43" vertex="1">
          <mxGeometry y="78" width="580" height="8" as="geometry" />
        </mxCell>
        <mxCell id="QzoHPegy9wZRgAVX_BEd-46" value="+ JDozerFuzzer({ fields: any, contract: any}, redis: RedisService): type" style="text;strokeColor=none;fillColor=none;align=left;verticalAlign=top;spacingLeft=4;spacingRight=4;overflow=hidden;rotatable=0;points=[[0,0.5],[1,0.5]];portConstraint=eastwest;whiteSpace=wrap;html=1;fontFamily=Courier New;" parent="QzoHPegy9wZRgAVX_BEd-43" vertex="1">
          <mxGeometry y="86" width="580" height="26" as="geometry" />
        </mxCell>
        <UserObject label="+ buildFuzzer(): Fuzzer" id="QzoHPegy9wZRgAVX_BEd-50">
          <mxCell style="text;strokeColor=#6F0000;fillColor=none;align=left;verticalAlign=top;spacingLeft=4;spacingRight=4;overflow=hidden;rotatable=0;points=[[0,0.5],[1,0.5]];portConstraint=eastwest;whiteSpace=wrap;html=1;fontFamily=Courier New;" parent="QzoHPegy9wZRgAVX_BEd-43" vertex="1">
            <mxGeometry y="112" width="580" height="26" as="geometry" />
          </mxCell>
        </UserObject>
        <mxCell id="QzoHPegy9wZRgAVX_BEd-51" value="- buildOperations(openApi: JDozerOpenApiLoad): UUID[]" style="text;strokeColor=none;fillColor=none;align=left;verticalAlign=top;spacingLeft=4;spacingRight=4;overflow=hidden;rotatable=0;points=[[0,0.5],[1,0.5]];portConstraint=eastwest;whiteSpace=wrap;html=1;fontFamily=Courier New;" parent="QzoHPegy9wZRgAVX_BEd-43" vertex="1">
          <mxGeometry y="138" width="580" height="26" as="geometry" />
        </mxCell>
        <mxCell id="QzoHPegy9wZRgAVX_BEd-74" value="+ buildDummy(fuzzer: Fuzzer): any[]" style="text;strokeColor=none;fillColor=none;align=left;verticalAlign=top;spacingLeft=4;spacingRight=4;overflow=hidden;rotatable=0;points=[[0,0.5],[1,0.5]];portConstraint=eastwest;whiteSpace=wrap;html=1;fontFamily=Courier New;" parent="QzoHPegy9wZRgAVX_BEd-43" vertex="1">
          <mxGeometry y="164" width="580" height="26" as="geometry" />
        </mxCell>
        <mxCell id="QzoHPegy9wZRgAVX_BEd-95" value="+ buildArtillery(fuzzer: Fuzzer): any&amp;lt;YAML&amp;gt;" style="text;strokeColor=none;fillColor=none;align=left;verticalAlign=top;spacingLeft=4;spacingRight=4;overflow=hidden;rotatable=0;points=[[0,0.5],[1,0.5]];portConstraint=eastwest;whiteSpace=wrap;html=1;fontFamily=Courier New;" parent="QzoHPegy9wZRgAVX_BEd-43" vertex="1">
          <mxGeometry y="190" width="580" height="26" as="geometry" />
        </mxCell>
        <mxCell id="QzoHPegy9wZRgAVX_BEd-151" style="edgeStyle=orthogonalEdgeStyle;rounded=0;orthogonalLoop=1;jettySize=auto;html=1;entryX=1;entryY=0.5;entryDx=0;entryDy=0;" parent="1" source="QzoHPegy9wZRgAVX_BEd-56" target="QzoHPegy9wZRgAVX_BEd-50" edge="1">
          <mxGeometry relative="1" as="geometry" />
        </mxCell>
        <mxCell id="QzoHPegy9wZRgAVX_BEd-56" value="Fuzzer" style="swimlane;fontStyle=0;childLayout=stackLayout;horizontal=1;startSize=26;fillColor=#a20025;horizontalStack=0;resizeParent=1;resizeParentMax=0;resizeLast=0;collapsible=1;marginBottom=0;whiteSpace=wrap;html=1;fontFamily=Courier New;fontColor=#ffffff;strokeColor=#6F0000;" parent="1" vertex="1">
          <mxGeometry x="-160" y="-140" width="200" height="182" as="geometry" />
        </mxCell>
        <mxCell id="QzoHPegy9wZRgAVX_BEd-57" value="+ id: UUID" style="text;strokeColor=none;fillColor=none;align=left;verticalAlign=top;spacingLeft=4;spacingRight=4;overflow=hidden;rotatable=0;points=[[0,0.5],[1,0.5]];portConstraint=eastwest;whiteSpace=wrap;html=1;fontFamily=Courier New;" parent="QzoHPegy9wZRgAVX_BEd-56" vertex="1">
          <mxGeometry y="26" width="200" height="26" as="geometry" />
        </mxCell>
        <mxCell id="QzoHPegy9wZRgAVX_BEd-58" value="+ name: string" style="text;strokeColor=none;fillColor=none;align=left;verticalAlign=top;spacingLeft=4;spacingRight=4;overflow=hidden;rotatable=0;points=[[0,0.5],[1,0.5]];portConstraint=eastwest;whiteSpace=wrap;html=1;fontFamily=Courier New;" parent="QzoHPegy9wZRgAVX_BEd-56" vertex="1">
          <mxGeometry y="52" width="200" height="26" as="geometry" />
        </mxCell>
        <mxCell id="Pzk9uVjQoe50JnbjTHm_-2" value="+ version: string" style="text;strokeColor=none;fillColor=none;align=left;verticalAlign=top;spacingLeft=4;spacingRight=4;overflow=hidden;rotatable=0;points=[[0,0.5],[1,0.5]];portConstraint=eastwest;whiteSpace=wrap;html=1;fontFamily=Courier New;" vertex="1" parent="QzoHPegy9wZRgAVX_BEd-56">
          <mxGeometry y="78" width="200" height="26" as="geometry" />
        </mxCell>
        <mxCell id="Pzk9uVjQoe50JnbjTHm_-1" value="+ owner: UUID" style="text;strokeColor=none;fillColor=none;align=left;verticalAlign=top;spacingLeft=4;spacingRight=4;overflow=hidden;rotatable=0;points=[[0,0.5],[1,0.5]];portConstraint=eastwest;whiteSpace=wrap;html=1;fontFamily=Courier New;" vertex="1" parent="QzoHPegy9wZRgAVX_BEd-56">
          <mxGeometry y="104" width="200" height="26" as="geometry" />
        </mxCell>
        <mxCell id="QzoHPegy9wZRgAVX_BEd-59" value="+ servers: any[]" style="text;strokeColor=none;fillColor=none;align=left;verticalAlign=top;spacingLeft=4;spacingRight=4;overflow=hidden;rotatable=0;points=[[0,0.5],[1,0.5]];portConstraint=eastwest;whiteSpace=wrap;html=1;fontFamily=Courier New;" parent="QzoHPegy9wZRgAVX_BEd-56" vertex="1">
          <mxGeometry y="130" width="200" height="26" as="geometry" />
        </mxCell>
        <mxCell id="QzoHPegy9wZRgAVX_BEd-60" value="+ operationIds: UUID[]" style="text;strokeColor=#B09500;fillColor=#e3c800;align=left;verticalAlign=top;spacingLeft=4;spacingRight=4;overflow=hidden;rotatable=0;points=[[0,0.5],[1,0.5]];portConstraint=eastwest;whiteSpace=wrap;html=1;fontFamily=Courier New;fontColor=#000000;" parent="QzoHPegy9wZRgAVX_BEd-56" vertex="1">
          <mxGeometry y="156" width="200" height="26" as="geometry" />
        </mxCell>
        <mxCell id="QzoHPegy9wZRgAVX_BEd-62" value="Operation" style="swimlane;fontStyle=0;childLayout=stackLayout;horizontal=1;startSize=26;fillColor=#e3c800;horizontalStack=0;resizeParent=1;resizeParentMax=0;resizeLast=0;collapsible=1;marginBottom=0;whiteSpace=wrap;html=1;fontFamily=Courier New;fontColor=#000000;strokeColor=#B09500;" parent="1" vertex="1">
          <mxGeometry x="780" y="430" width="200" height="208" as="geometry" />
        </mxCell>
        <mxCell id="QzoHPegy9wZRgAVX_BEd-63" value="+ id: UUID" style="text;strokeColor=#666666;fillColor=#f5f5f5;align=left;verticalAlign=top;spacingLeft=4;spacingRight=4;overflow=hidden;rotatable=0;points=[[0,0.5],[1,0.5]];portConstraint=eastwest;whiteSpace=wrap;html=1;fontFamily=Courier New;gradientColor=#b3b3b3;fontColor=#000000;" parent="QzoHPegy9wZRgAVX_BEd-62" vertex="1">
          <mxGeometry y="26" width="200" height="26" as="geometry" />
        </mxCell>
        <mxCell id="QzoHPegy9wZRgAVX_BEd-64" value="+ name: string" style="text;strokeColor=none;fillColor=none;align=left;verticalAlign=top;spacingLeft=4;spacingRight=4;overflow=hidden;rotatable=0;points=[[0,0.5],[1,0.5]];portConstraint=eastwest;whiteSpace=wrap;html=1;fontFamily=Courier New;" parent="QzoHPegy9wZRgAVX_BEd-62" vertex="1">
          <mxGeometry y="52" width="200" height="26" as="geometry" />
        </mxCell>
        <mxCell id="QzoHPegy9wZRgAVX_BEd-65" value="+ req: any" style="text;strokeColor=none;fillColor=none;align=left;verticalAlign=top;spacingLeft=4;spacingRight=4;overflow=hidden;rotatable=0;points=[[0,0.5],[1,0.5]];portConstraint=eastwest;whiteSpace=wrap;html=1;fontFamily=Courier New;" parent="QzoHPegy9wZRgAVX_BEd-62" vertex="1">
          <mxGeometry y="78" width="200" height="26" as="geometry" />
        </mxCell>
        <mxCell id="QzoHPegy9wZRgAVX_BEd-66" value="+ res: any[]" style="text;strokeColor=none;fillColor=none;align=left;verticalAlign=top;spacingLeft=4;spacingRight=4;overflow=hidden;rotatable=0;points=[[0,0.5],[1,0.5]];portConstraint=eastwest;whiteSpace=wrap;html=1;fontFamily=Courier New;" parent="QzoHPegy9wZRgAVX_BEd-62" vertex="1">
          <mxGeometry y="104" width="200" height="26" as="geometry" />
        </mxCell>
        <mxCell id="QzoHPegy9wZRgAVX_BEd-67" value="+ parameters: any" style="text;strokeColor=none;fillColor=none;align=left;verticalAlign=top;spacingLeft=4;spacingRight=4;overflow=hidden;rotatable=0;points=[[0,0.5],[1,0.5]];portConstraint=eastwest;whiteSpace=wrap;html=1;fontFamily=Courier New;" parent="QzoHPegy9wZRgAVX_BEd-62" vertex="1">
          <mxGeometry y="130" width="200" height="26" as="geometry" />
        </mxCell>
        <mxCell id="QzoHPegy9wZRgAVX_BEd-68" value="+ path: string" style="text;strokeColor=none;fillColor=none;align=left;verticalAlign=top;spacingLeft=4;spacingRight=4;overflow=hidden;rotatable=0;points=[[0,0.5],[1,0.5]];portConstraint=eastwest;whiteSpace=wrap;html=1;fontFamily=Courier New;" parent="QzoHPegy9wZRgAVX_BEd-62" vertex="1">
          <mxGeometry y="156" width="200" height="26" as="geometry" />
        </mxCell>
        <mxCell id="QzoHPegy9wZRgAVX_BEd-69" value="+ method: string" style="text;strokeColor=none;fillColor=none;align=left;verticalAlign=top;spacingLeft=4;spacingRight=4;overflow=hidden;rotatable=0;points=[[0,0.5],[1,0.5]];portConstraint=eastwest;whiteSpace=wrap;html=1;fontFamily=Courier New;" parent="QzoHPegy9wZRgAVX_BEd-62" vertex="1">
          <mxGeometry y="182" width="200" height="26" as="geometry" />
        </mxCell>
        <mxCell id="QzoHPegy9wZRgAVX_BEd-70" style="edgeStyle=orthogonalEdgeStyle;rounded=0;orthogonalLoop=1;jettySize=auto;html=1;entryX=0.5;entryY=0;entryDx=0;entryDy=0;dashed=1;" parent="1" source="QzoHPegy9wZRgAVX_BEd-60" target="QzoHPegy9wZRgAVX_BEd-62" edge="1">
          <mxGeometry relative="1" as="geometry" />
        </mxCell>
        <mxCell id="QzoHPegy9wZRgAVX_BEd-71" style="edgeStyle=orthogonalEdgeStyle;rounded=0;orthogonalLoop=1;jettySize=auto;html=1;entryX=0.5;entryY=0;entryDx=0;entryDy=0;dashed=1;" parent="1" source="QzoHPegy9wZRgAVX_BEd-20" target="QzoHPegy9wZRgAVX_BEd-62" edge="1">
          <mxGeometry relative="1" as="geometry" />
        </mxCell>
        <mxCell id="QzoHPegy9wZRgAVX_BEd-83" value="JDozerFuzzerDummy" style="swimlane;fontStyle=1;align=center;verticalAlign=top;childLayout=stackLayout;horizontal=1;startSize=26;horizontalStack=0;resizeParent=1;resizeParentMax=0;resizeLast=0;collapsible=1;marginBottom=0;whiteSpace=wrap;html=1;fontFamily=Courier New;" parent="1" vertex="1">
          <mxGeometry x="-1350" y="470" width="530" height="216" as="geometry" />
        </mxCell>
        <mxCell id="QzoHPegy9wZRgAVX_BEd-84" value="- fuzzer: Fuzzer" style="text;strokeColor=none;fillColor=none;align=left;verticalAlign=top;spacingLeft=4;spacingRight=4;overflow=hidden;rotatable=0;points=[[0,0.5],[1,0.5]];portConstraint=eastwest;whiteSpace=wrap;html=1;fontFamily=Courier New;" parent="QzoHPegy9wZRgAVX_BEd-83" vertex="1">
          <mxGeometry y="26" width="530" height="26" as="geometry" />
        </mxCell>
        <mxCell id="QzoHPegy9wZRgAVX_BEd-93" value="- redis: RedisService" style="text;strokeColor=none;fillColor=none;align=left;verticalAlign=top;spacingLeft=4;spacingRight=4;overflow=hidden;rotatable=0;points=[[0,0.5],[1,0.5]];portConstraint=eastwest;whiteSpace=wrap;html=1;fontFamily=Courier New;" parent="QzoHPegy9wZRgAVX_BEd-83" vertex="1">
          <mxGeometry y="52" width="530" height="26" as="geometry" />
        </mxCell>
        <mxCell id="QzoHPegy9wZRgAVX_BEd-85" value="" style="line;strokeWidth=1;fillColor=none;align=left;verticalAlign=middle;spacingTop=-1;spacingLeft=3;spacingRight=3;rotatable=0;labelPosition=right;points=[];portConstraint=eastwest;strokeColor=inherit;" parent="QzoHPegy9wZRgAVX_BEd-83" vertex="1">
          <mxGeometry y="78" width="530" height="8" as="geometry" />
        </mxCell>
        <mxCell id="QzoHPegy9wZRgAVX_BEd-86" value="+ JDozerFuzzerDummy(fuzzer: Fuzzer, redis: RedisService): void" style="text;strokeColor=none;fillColor=none;align=left;verticalAlign=top;spacingLeft=4;spacingRight=4;overflow=hidden;rotatable=0;points=[[0,0.5],[1,0.5]];portConstraint=eastwest;whiteSpace=wrap;html=1;fontFamily=Courier New;" parent="QzoHPegy9wZRgAVX_BEd-83" vertex="1">
          <mxGeometry y="86" width="530" height="26" as="geometry" />
        </mxCell>
        <mxCell id="QzoHPegy9wZRgAVX_BEd-87" value="+ build(): void" style="text;strokeColor=none;fillColor=none;align=left;verticalAlign=top;spacingLeft=4;spacingRight=4;overflow=hidden;rotatable=0;points=[[0,0.5],[1,0.5]];portConstraint=eastwest;whiteSpace=wrap;html=1;fontFamily=Courier New;" parent="QzoHPegy9wZRgAVX_BEd-83" vertex="1">
          <mxGeometry y="112" width="530" height="26" as="geometry" />
        </mxCell>
        <mxCell id="QzoHPegy9wZRgAVX_BEd-88" value="- getOperation(operationId: UUID): Operation" style="text;strokeColor=none;fillColor=none;align=left;verticalAlign=top;spacingLeft=4;spacingRight=4;overflow=hidden;rotatable=0;points=[[0,0.5],[1,0.5]];portConstraint=eastwest;whiteSpace=wrap;html=1;fontFamily=Courier New;" parent="QzoHPegy9wZRgAVX_BEd-83" vertex="1">
          <mxGeometry y="138" width="530" height="26" as="geometry" />
        </mxCell>
        <mxCell id="QzoHPegy9wZRgAVX_BEd-89" value="- dummy(operation: Operation): void" style="text;strokeColor=none;fillColor=none;align=left;verticalAlign=top;spacingLeft=4;spacingRight=4;overflow=hidden;rotatable=0;points=[[0,0.5],[1,0.5]];portConstraint=eastwest;whiteSpace=wrap;html=1;fontFamily=Courier New;" parent="QzoHPegy9wZRgAVX_BEd-83" vertex="1">
          <mxGeometry y="164" width="530" height="26" as="geometry" />
        </mxCell>
        <mxCell id="QzoHPegy9wZRgAVX_BEd-152" value="- createDummy(schema: any): any[]" style="text;strokeColor=none;fillColor=none;align=left;verticalAlign=top;spacingLeft=4;spacingRight=4;overflow=hidden;rotatable=0;points=[[0,0.5],[1,0.5]];portConstraint=eastwest;whiteSpace=wrap;html=1;fontFamily=Courier New;" parent="QzoHPegy9wZRgAVX_BEd-83" vertex="1">
          <mxGeometry y="190" width="530" height="26" as="geometry" />
        </mxCell>
        <mxCell id="QzoHPegy9wZRgAVX_BEd-98" value="JDozerFuzzerArtillery" style="swimlane;fontStyle=1;align=center;verticalAlign=top;childLayout=stackLayout;horizontal=1;startSize=26;horizontalStack=0;resizeParent=1;resizeParentMax=0;resizeLast=0;collapsible=1;marginBottom=0;whiteSpace=wrap;html=1;fontFamily=Courier New;" parent="1" vertex="1">
          <mxGeometry x="-1010" y="780" width="530" height="450" as="geometry" />
        </mxCell>
        <mxCell id="QzoHPegy9wZRgAVX_BEd-99" value="- redis: Redis" style="text;strokeColor=none;fillColor=none;align=left;verticalAlign=top;spacingLeft=4;spacingRight=4;overflow=hidden;rotatable=0;points=[[0,0.5],[1,0.5]];portConstraint=eastwest;whiteSpace=wrap;html=1;fontFamily=Courier New;" parent="QzoHPegy9wZRgAVX_BEd-98" vertex="1">
          <mxGeometry y="26" width="530" height="26" as="geometry" />
        </mxCell>
        <mxCell id="QzoHPegy9wZRgAVX_BEd-103" value="- fuzzer: Fuzzer" style="text;strokeColor=none;fillColor=none;align=left;verticalAlign=top;spacingLeft=4;spacingRight=4;overflow=hidden;rotatable=0;points=[[0,0.5],[1,0.5]];portConstraint=eastwest;whiteSpace=wrap;html=1;fontFamily=Courier New;" parent="QzoHPegy9wZRgAVX_BEd-98" vertex="1">
          <mxGeometry y="52" width="530" height="26" as="geometry" />
        </mxCell>
        <mxCell id="QzoHPegy9wZRgAVX_BEd-114" value="- dummy: Dummy" style="text;strokeColor=none;fillColor=none;align=left;verticalAlign=top;spacingLeft=4;spacingRight=4;overflow=hidden;rotatable=0;points=[[0,0.5],[1,0.5]];portConstraint=eastwest;whiteSpace=wrap;html=1;fontFamily=Courier New;" parent="QzoHPegy9wZRgAVX_BEd-98" vertex="1">
          <mxGeometry y="78" width="530" height="26" as="geometry" />
        </mxCell>
        <mxCell id="QzoHPegy9wZRgAVX_BEd-116" value="- idxPayload: number" style="text;strokeColor=none;fillColor=none;align=left;verticalAlign=top;spacingLeft=4;spacingRight=4;overflow=hidden;rotatable=0;points=[[0,0.5],[1,0.5]];portConstraint=eastwest;whiteSpace=wrap;html=1;fontFamily=Courier New;" parent="QzoHPegy9wZRgAVX_BEd-98" vertex="1">
          <mxGeometry y="104" width="530" height="26" as="geometry" />
        </mxCell>
        <mxCell id="QzoHPegy9wZRgAVX_BEd-117" value="- idxHeaders: number" style="text;strokeColor=none;fillColor=none;align=left;verticalAlign=top;spacingLeft=4;spacingRight=4;overflow=hidden;rotatable=0;points=[[0,0.5],[1,0.5]];portConstraint=eastwest;whiteSpace=wrap;html=1;fontFamily=Courier New;" parent="QzoHPegy9wZRgAVX_BEd-98" vertex="1">
          <mxGeometry y="130" width="530" height="26" as="geometry" />
        </mxCell>
        <mxCell id="QzoHPegy9wZRgAVX_BEd-115" value="- idxQuery: number" style="text;strokeColor=none;fillColor=none;align=left;verticalAlign=top;spacingLeft=4;spacingRight=4;overflow=hidden;rotatable=0;points=[[0,0.5],[1,0.5]];portConstraint=eastwest;whiteSpace=wrap;html=1;fontFamily=Courier New;" parent="QzoHPegy9wZRgAVX_BEd-98" vertex="1">
          <mxGeometry y="156" width="530" height="26" as="geometry" />
        </mxCell>
        <mxCell id="QzoHPegy9wZRgAVX_BEd-107" value="- idxPath: number" style="text;strokeColor=none;fillColor=none;align=left;verticalAlign=top;spacingLeft=4;spacingRight=4;overflow=hidden;rotatable=0;points=[[0,0.5],[1,0.5]];portConstraint=eastwest;whiteSpace=wrap;html=1;fontFamily=Courier New;" parent="QzoHPegy9wZRgAVX_BEd-98" vertex="1">
          <mxGeometry y="182" width="530" height="26" as="geometry" />
        </mxCell>
        <mxCell id="QzoHPegy9wZRgAVX_BEd-100" value="" style="line;strokeWidth=1;fillColor=none;align=left;verticalAlign=middle;spacingTop=-1;spacingLeft=3;spacingRight=3;rotatable=0;labelPosition=right;points=[];portConstraint=eastwest;strokeColor=inherit;" parent="QzoHPegy9wZRgAVX_BEd-98" vertex="1">
          <mxGeometry y="208" width="530" height="8" as="geometry" />
        </mxCell>
        <mxCell id="QzoHPegy9wZRgAVX_BEd-101" value="+ beforeScenario(context, event): void" style="text;strokeColor=none;fillColor=none;align=left;verticalAlign=top;spacingLeft=4;spacingRight=4;overflow=hidden;rotatable=0;points=[[0,0.5],[1,0.5]];portConstraint=eastwest;whiteSpace=wrap;html=1;fontFamily=Courier New;" parent="QzoHPegy9wZRgAVX_BEd-98" vertex="1">
          <mxGeometry y="216" width="530" height="26" as="geometry" />
        </mxCell>
        <mxCell id="QzoHPegy9wZRgAVX_BEd-102" value="- getFuzzer(fuzzerId: UUID): Fuzzer" style="text;strokeColor=none;fillColor=none;align=left;verticalAlign=top;spacingLeft=4;spacingRight=4;overflow=hidden;rotatable=0;points=[[0,0.5],[1,0.5]];portConstraint=eastwest;whiteSpace=wrap;html=1;fontFamily=Courier New;" parent="QzoHPegy9wZRgAVX_BEd-98" vertex="1">
          <mxGeometry y="242" width="530" height="26" as="geometry" />
        </mxCell>
        <mxCell id="QzoHPegy9wZRgAVX_BEd-153" value="- getOperationId(operationName: string): UUID" style="text;strokeColor=none;fillColor=none;align=left;verticalAlign=top;spacingLeft=4;spacingRight=4;overflow=hidden;rotatable=0;points=[[0,0.5],[1,0.5]];portConstraint=eastwest;whiteSpace=wrap;html=1;fontFamily=Courier New;" parent="QzoHPegy9wZRgAVX_BEd-98" vertex="1">
          <mxGeometry y="268" width="530" height="26" as="geometry" />
        </mxCell>
        <mxCell id="QzoHPegy9wZRgAVX_BEd-104" value="- getDummy(operationId: UUID): Dummy" style="text;strokeColor=none;fillColor=none;align=left;verticalAlign=top;spacingLeft=4;spacingRight=4;overflow=hidden;rotatable=0;points=[[0,0.5],[1,0.5]];portConstraint=eastwest;whiteSpace=wrap;html=1;fontFamily=Courier New;" parent="QzoHPegy9wZRgAVX_BEd-98" vertex="1">
          <mxGeometry y="294" width="530" height="26" as="geometry" />
        </mxCell>
        <mxCell id="QzoHPegy9wZRgAVX_BEd-106" value="+ beforeRequest(req, context, event): void" style="text;strokeColor=none;fillColor=none;align=left;verticalAlign=top;spacingLeft=4;spacingRight=4;overflow=hidden;rotatable=0;points=[[0,0.5],[1,0.5]];portConstraint=eastwest;whiteSpace=wrap;html=1;fontFamily=Courier New;" parent="QzoHPegy9wZRgAVX_BEd-98" vertex="1">
          <mxGeometry y="320" width="530" height="26" as="geometry" />
        </mxCell>
        <mxCell id="QzoHPegy9wZRgAVX_BEd-105" value="- getParams(): Parameters" style="text;strokeColor=#432D57;fillColor=#76608a;align=left;verticalAlign=top;spacingLeft=4;spacingRight=4;overflow=hidden;rotatable=0;points=[[0,0.5],[1,0.5]];portConstraint=eastwest;whiteSpace=wrap;html=1;fontFamily=Courier New;fontColor=#ffffff;" parent="QzoHPegy9wZRgAVX_BEd-98" vertex="1">
          <mxGeometry y="346" width="530" height="26" as="geometry" />
        </mxCell>
        <mxCell id="QzoHPegy9wZRgAVX_BEd-121" value="- saveRequest(uuidReq, parameters: Parameters): Parameters" style="text;strokeColor=#B20000;fillColor=#e51400;align=left;verticalAlign=top;spacingLeft=4;spacingRight=4;overflow=hidden;rotatable=0;points=[[0,0.5],[1,0.5]];portConstraint=eastwest;whiteSpace=wrap;html=1;fontFamily=Courier New;fontColor=#ffffff;" parent="QzoHPegy9wZRgAVX_BEd-98" vertex="1">
          <mxGeometry y="372" width="530" height="26" as="geometry" />
        </mxCell>
        <mxCell id="QzoHPegy9wZRgAVX_BEd-118" value="+ afterResponse(req, res, context, event): void" style="text;strokeColor=none;fillColor=none;align=left;verticalAlign=top;spacingLeft=4;spacingRight=4;overflow=hidden;rotatable=0;points=[[0,0.5],[1,0.5]];portConstraint=eastwest;whiteSpace=wrap;html=1;fontFamily=Courier New;" parent="QzoHPegy9wZRgAVX_BEd-98" vertex="1">
          <mxGeometry y="398" width="530" height="26" as="geometry" />
        </mxCell>
        <mxCell id="QzoHPegy9wZRgAVX_BEd-119" value="- buildResponse(res): Response" style="text;strokeColor=#314354;fillColor=#647687;align=left;verticalAlign=top;spacingLeft=4;spacingRight=4;overflow=hidden;rotatable=0;points=[[0,0.5],[1,0.5]];portConstraint=eastwest;whiteSpace=wrap;html=1;fontFamily=Courier New;fontColor=#ffffff;" parent="QzoHPegy9wZRgAVX_BEd-98" vertex="1">
          <mxGeometry y="424" width="530" height="26" as="geometry" />
        </mxCell>
        <mxCell id="QzoHPegy9wZRgAVX_BEd-113" style="edgeStyle=orthogonalEdgeStyle;rounded=0;orthogonalLoop=1;jettySize=auto;html=1;entryX=1;entryY=0.5;entryDx=0;entryDy=0;" parent="1" source="QzoHPegy9wZRgAVX_BEd-108" target="QzoHPegy9wZRgAVX_BEd-105" edge="1">
          <mxGeometry relative="1" as="geometry" />
        </mxCell>
        <mxCell id="QzoHPegy9wZRgAVX_BEd-108" value="Parameters" style="swimlane;fontStyle=0;childLayout=stackLayout;horizontal=1;startSize=26;fillColor=#76608a;horizontalStack=0;resizeParent=1;resizeParentMax=0;resizeLast=0;collapsible=1;marginBottom=0;whiteSpace=wrap;html=1;fontColor=#ffffff;strokeColor=#432D57;" parent="1" vertex="1">
          <mxGeometry x="-260" y="770" width="140" height="260" as="geometry" />
        </mxCell>
        <mxCell id="QzoHPegy9wZRgAVX_BEd-109" value="+ payload: any" style="text;strokeColor=none;fillColor=none;align=left;verticalAlign=top;spacingLeft=4;spacingRight=4;overflow=hidden;rotatable=0;points=[[0,0.5],[1,0.5]];portConstraint=eastwest;whiteSpace=wrap;html=1;" parent="QzoHPegy9wZRgAVX_BEd-108" vertex="1">
          <mxGeometry y="26" width="140" height="26" as="geometry" />
        </mxCell>
        <mxCell id="QzoHPegy9wZRgAVX_BEd-110" value="+ headers: any" style="text;strokeColor=none;fillColor=none;align=left;verticalAlign=top;spacingLeft=4;spacingRight=4;overflow=hidden;rotatable=0;points=[[0,0.5],[1,0.5]];portConstraint=eastwest;whiteSpace=wrap;html=1;" parent="QzoHPegy9wZRgAVX_BEd-108" vertex="1">
          <mxGeometry y="52" width="140" height="26" as="geometry" />
        </mxCell>
        <mxCell id="QzoHPegy9wZRgAVX_BEd-111" value="+ query: any" style="text;strokeColor=none;fillColor=none;align=left;verticalAlign=top;spacingLeft=4;spacingRight=4;overflow=hidden;rotatable=0;points=[[0,0.5],[1,0.5]];portConstraint=eastwest;whiteSpace=wrap;html=1;" parent="QzoHPegy9wZRgAVX_BEd-108" vertex="1">
          <mxGeometry y="78" width="140" height="26" as="geometry" />
        </mxCell>
        <mxCell id="QzoHPegy9wZRgAVX_BEd-112" value="+ path: any" style="text;strokeColor=none;fillColor=none;align=left;verticalAlign=top;spacingLeft=4;spacingRight=4;overflow=hidden;rotatable=0;points=[[0,0.5],[1,0.5]];portConstraint=eastwest;whiteSpace=wrap;html=1;" parent="QzoHPegy9wZRgAVX_BEd-108" vertex="1">
          <mxGeometry y="104" width="140" height="26" as="geometry" />
        </mxCell>
        <mxCell id="QzoHPegy9wZRgAVX_BEd-122" value="+ payloadId: UUID" style="text;strokeColor=none;fillColor=none;align=left;verticalAlign=top;spacingLeft=4;spacingRight=4;overflow=hidden;rotatable=0;points=[[0,0.5],[1,0.5]];portConstraint=eastwest;whiteSpace=wrap;html=1;" parent="QzoHPegy9wZRgAVX_BEd-108" vertex="1">
          <mxGeometry y="130" width="140" height="26" as="geometry" />
        </mxCell>
        <mxCell id="QzoHPegy9wZRgAVX_BEd-124" value="+ headersId: UUID" style="text;strokeColor=none;fillColor=none;align=left;verticalAlign=top;spacingLeft=4;spacingRight=4;overflow=hidden;rotatable=0;points=[[0,0.5],[1,0.5]];portConstraint=eastwest;whiteSpace=wrap;html=1;" parent="QzoHPegy9wZRgAVX_BEd-108" vertex="1">
          <mxGeometry y="156" width="140" height="26" as="geometry" />
        </mxCell>
        <mxCell id="QzoHPegy9wZRgAVX_BEd-123" value="+ queryId: UUID" style="text;strokeColor=none;fillColor=none;align=left;verticalAlign=top;spacingLeft=4;spacingRight=4;overflow=hidden;rotatable=0;points=[[0,0.5],[1,0.5]];portConstraint=eastwest;whiteSpace=wrap;html=1;" parent="QzoHPegy9wZRgAVX_BEd-108" vertex="1">
          <mxGeometry y="182" width="140" height="26" as="geometry" />
        </mxCell>
        <mxCell id="QzoHPegy9wZRgAVX_BEd-125" value="+ pathId: UUID" style="text;strokeColor=none;fillColor=none;align=left;verticalAlign=top;spacingLeft=4;spacingRight=4;overflow=hidden;rotatable=0;points=[[0,0.5],[1,0.5]];portConstraint=eastwest;whiteSpace=wrap;html=1;" parent="QzoHPegy9wZRgAVX_BEd-108" vertex="1">
          <mxGeometry y="208" width="140" height="26" as="geometry" />
        </mxCell>
        <mxCell id="QzoHPegy9wZRgAVX_BEd-126" value="+ id: UUID" style="text;strokeColor=#666666;fillColor=#f5f5f5;align=left;verticalAlign=top;spacingLeft=4;spacingRight=4;overflow=hidden;rotatable=0;points=[[0,0.5],[1,0.5]];portConstraint=eastwest;whiteSpace=wrap;html=1;gradientColor=#b3b3b3;fontColor=#000000;" parent="QzoHPegy9wZRgAVX_BEd-108" vertex="1">
          <mxGeometry y="234" width="140" height="26" as="geometry" />
        </mxCell>
        <mxCell id="QzoHPegy9wZRgAVX_BEd-134" style="edgeStyle=orthogonalEdgeStyle;rounded=0;orthogonalLoop=1;jettySize=auto;html=1;" parent="1" source="QzoHPegy9wZRgAVX_BEd-127" target="QzoHPegy9wZRgAVX_BEd-121" edge="1">
          <mxGeometry relative="1" as="geometry">
            <mxPoint x="90" y="1150" as="targetPoint" />
          </mxGeometry>
        </mxCell>
        <mxCell id="QzoHPegy9wZRgAVX_BEd-127" value="Request (REQ)" style="swimlane;fontStyle=0;childLayout=stackLayout;horizontal=1;startSize=26;fillColor=#e51400;horizontalStack=0;resizeParent=1;resizeParentMax=0;resizeLast=0;collapsible=1;marginBottom=0;whiteSpace=wrap;html=1;fontColor=#ffffff;strokeColor=#B20000;fontFamily=Courier New;" parent="1" vertex="1">
          <mxGeometry x="-120" y="1280" width="250" height="182" as="geometry" />
        </mxCell>
        <mxCell id="QzoHPegy9wZRgAVX_BEd-128" value="+ uuidReq: UUID" style="text;strokeColor=#d6b656;fillColor=#fff2cc;align=left;verticalAlign=top;spacingLeft=4;spacingRight=4;overflow=hidden;rotatable=0;points=[[0,0.5],[1,0.5]];portConstraint=eastwest;whiteSpace=wrap;html=1;fontFamily=Courier New;gradientColor=#ffd966;fontColor=#000000;" parent="QzoHPegy9wZRgAVX_BEd-127" vertex="1">
          <mxGeometry y="26" width="250" height="26" as="geometry" />
        </mxCell>
        <mxCell id="QzoHPegy9wZRgAVX_BEd-129" value="+ operationId: UUID" style="text;strokeColor=#666666;fillColor=#f5f5f5;align=left;verticalAlign=top;spacingLeft=4;spacingRight=4;overflow=hidden;rotatable=0;points=[[0,0.5],[1,0.5]];portConstraint=eastwest;whiteSpace=wrap;html=1;fontFamily=Courier New;gradientColor=#b3b3b3;fontColor=#000000;" parent="QzoHPegy9wZRgAVX_BEd-127" vertex="1">
          <mxGeometry y="52" width="250" height="26" as="geometry" />
        </mxCell>
        <mxCell id="QzoHPegy9wZRgAVX_BEd-130" value="+ payloadId: UUID" style="text;strokeColor=none;fillColor=none;align=left;verticalAlign=top;spacingLeft=4;spacingRight=4;overflow=hidden;rotatable=0;points=[[0,0.5],[1,0.5]];portConstraint=eastwest;whiteSpace=wrap;html=1;fontFamily=Courier New;" parent="QzoHPegy9wZRgAVX_BEd-127" vertex="1">
          <mxGeometry y="78" width="250" height="26" as="geometry" />
        </mxCell>
        <mxCell id="QzoHPegy9wZRgAVX_BEd-131" value="+ headersId: UUID" style="text;strokeColor=none;fillColor=none;align=left;verticalAlign=top;spacingLeft=4;spacingRight=4;overflow=hidden;rotatable=0;points=[[0,0.5],[1,0.5]];portConstraint=eastwest;whiteSpace=wrap;html=1;fontFamily=Courier New;" parent="QzoHPegy9wZRgAVX_BEd-127" vertex="1">
          <mxGeometry y="104" width="250" height="26" as="geometry" />
        </mxCell>
        <mxCell id="QzoHPegy9wZRgAVX_BEd-132" value="+ queryId: UUID" style="text;strokeColor=none;fillColor=none;align=left;verticalAlign=top;spacingLeft=4;spacingRight=4;overflow=hidden;rotatable=0;points=[[0,0.5],[1,0.5]];portConstraint=eastwest;whiteSpace=wrap;html=1;fontFamily=Courier New;" parent="QzoHPegy9wZRgAVX_BEd-127" vertex="1">
          <mxGeometry y="130" width="250" height="26" as="geometry" />
        </mxCell>
        <mxCell id="QzoHPegy9wZRgAVX_BEd-133" value="+ pathId: UUID" style="text;strokeColor=none;fillColor=none;align=left;verticalAlign=top;spacingLeft=4;spacingRight=4;overflow=hidden;rotatable=0;points=[[0,0.5],[1,0.5]];portConstraint=eastwest;whiteSpace=wrap;html=1;fontFamily=Courier New;" parent="QzoHPegy9wZRgAVX_BEd-127" vertex="1">
          <mxGeometry y="156" width="250" height="26" as="geometry" />
        </mxCell>
        <mxCell id="QzoHPegy9wZRgAVX_BEd-143" style="edgeStyle=orthogonalEdgeStyle;rounded=0;orthogonalLoop=1;jettySize=auto;html=1;" parent="1" source="QzoHPegy9wZRgAVX_BEd-135" target="QzoHPegy9wZRgAVX_BEd-119" edge="1">
          <mxGeometry relative="1" as="geometry" />
        </mxCell>
        <mxCell id="QzoHPegy9wZRgAVX_BEd-135" value="Response (RES)" style="swimlane;fontStyle=0;childLayout=stackLayout;horizontal=1;startSize=26;fillColor=#647687;horizontalStack=0;resizeParent=1;resizeParentMax=0;resizeLast=0;collapsible=1;marginBottom=0;whiteSpace=wrap;html=1;fontColor=#ffffff;strokeColor=#314354;fontFamily=Courier New;" parent="1" vertex="1">
          <mxGeometry x="-390" y="1450" width="210" height="208" as="geometry" />
        </mxCell>
        <mxCell id="QzoHPegy9wZRgAVX_BEd-136" value="+ uuidRes: UUID" style="text;align=left;verticalAlign=top;spacingLeft=4;spacingRight=4;overflow=hidden;rotatable=0;points=[[0,0.5],[1,0.5]];portConstraint=eastwest;whiteSpace=wrap;html=1;fontFamily=Courier New;" parent="QzoHPegy9wZRgAVX_BEd-135" vertex="1">
          <mxGeometry y="26" width="210" height="26" as="geometry" />
        </mxCell>
        <mxCell id="QzoHPegy9wZRgAVX_BEd-137" value="+ uuidReq: UUID" style="text;strokeColor=#d6b656;fillColor=#fff2cc;align=left;verticalAlign=top;spacingLeft=4;spacingRight=4;overflow=hidden;rotatable=0;points=[[0,0.5],[1,0.5]];portConstraint=eastwest;whiteSpace=wrap;html=1;fontFamily=Courier New;gradientColor=#ffd966;fontColor=#000000;" parent="QzoHPegy9wZRgAVX_BEd-135" vertex="1">
          <mxGeometry y="52" width="210" height="26" as="geometry" />
        </mxCell>
        <mxCell id="QzoHPegy9wZRgAVX_BEd-138" value="+ payload: string" style="text;strokeColor=none;fillColor=none;align=left;verticalAlign=top;spacingLeft=4;spacingRight=4;overflow=hidden;rotatable=0;points=[[0,0.5],[1,0.5]];portConstraint=eastwest;whiteSpace=wrap;html=1;fontFamily=Courier New;" parent="QzoHPegy9wZRgAVX_BEd-135" vertex="1">
          <mxGeometry y="78" width="210" height="26" as="geometry" />
        </mxCell>
        <mxCell id="QzoHPegy9wZRgAVX_BEd-139" value="+ headers: any" style="text;strokeColor=none;fillColor=none;align=left;verticalAlign=top;spacingLeft=4;spacingRight=4;overflow=hidden;rotatable=0;points=[[0,0.5],[1,0.5]];portConstraint=eastwest;whiteSpace=wrap;html=1;fontFamily=Courier New;" parent="QzoHPegy9wZRgAVX_BEd-135" vertex="1">
          <mxGeometry y="104" width="210" height="26" as="geometry" />
        </mxCell>
        <mxCell id="QzoHPegy9wZRgAVX_BEd-140" value="+ statusCode: number" style="text;strokeColor=none;fillColor=none;align=left;verticalAlign=top;spacingLeft=4;spacingRight=4;overflow=hidden;rotatable=0;points=[[0,0.5],[1,0.5]];portConstraint=eastwest;whiteSpace=wrap;html=1;fontFamily=Courier New;" parent="QzoHPegy9wZRgAVX_BEd-135" vertex="1">
          <mxGeometry y="130" width="210" height="26" as="geometry" />
        </mxCell>
        <mxCell id="QzoHPegy9wZRgAVX_BEd-141" value="+ time: DateTime" style="text;strokeColor=none;fillColor=none;align=left;verticalAlign=top;spacingLeft=4;spacingRight=4;overflow=hidden;rotatable=0;points=[[0,0.5],[1,0.5]];portConstraint=eastwest;whiteSpace=wrap;html=1;fontFamily=Courier New;" parent="QzoHPegy9wZRgAVX_BEd-135" vertex="1">
          <mxGeometry y="156" width="210" height="26" as="geometry" />
        </mxCell>
        <mxCell id="QzoHPegy9wZRgAVX_BEd-142" value="+ id: UUID" style="text;align=left;verticalAlign=top;spacingLeft=4;spacingRight=4;overflow=hidden;rotatable=0;points=[[0,0.5],[1,0.5]];portConstraint=eastwest;whiteSpace=wrap;html=1;fontFamily=Courier New;fillColor=#f5f5f5;strokeColor=#666666;gradientColor=#b3b3b3;fontColor=#000000;" parent="QzoHPegy9wZRgAVX_BEd-135" vertex="1">
          <mxGeometry y="182" width="210" height="26" as="geometry" />
        </mxCell>
        <mxCell id="QzoHPegy9wZRgAVX_BEd-144" value="FuzzerDummy (DUM)" style="swimlane;fontStyle=0;childLayout=stackLayout;horizontal=1;startSize=26;horizontalStack=0;resizeParent=1;resizeParentMax=0;resizeLast=0;collapsible=1;marginBottom=0;whiteSpace=wrap;html=1;fillColor=#60a917;fontColor=#ffffff;strokeColor=#2D7600;" parent="1" vertex="1">
          <mxGeometry x="70" y="927" width="180" height="156" as="geometry" />
        </mxCell>
        <mxCell id="QzoHPegy9wZRgAVX_BEd-145" value="+ id: UUID" style="text;strokeColor=#666666;fillColor=#f5f5f5;align=left;verticalAlign=top;spacingLeft=4;spacingRight=4;overflow=hidden;rotatable=0;points=[[0,0.5],[1,0.5]];portConstraint=eastwest;whiteSpace=wrap;html=1;gradientColor=#b3b3b3;fontColor=#000000;" parent="QzoHPegy9wZRgAVX_BEd-144" vertex="1">
          <mxGeometry y="26" width="180" height="26" as="geometry" />
        </mxCell>
        <mxCell id="QzoHPegy9wZRgAVX_BEd-146" value="+ payloads: any[]" style="text;strokeColor=none;fillColor=none;align=left;verticalAlign=top;spacingLeft=4;spacingRight=4;overflow=hidden;rotatable=0;points=[[0,0.5],[1,0.5]];portConstraint=eastwest;whiteSpace=wrap;html=1;" parent="QzoHPegy9wZRgAVX_BEd-144" vertex="1">
          <mxGeometry y="52" width="180" height="26" as="geometry" />
        </mxCell>
        <mxCell id="QzoHPegy9wZRgAVX_BEd-147" value="+ headers: any[]" style="text;strokeColor=none;fillColor=none;align=left;verticalAlign=top;spacingLeft=4;spacingRight=4;overflow=hidden;rotatable=0;points=[[0,0.5],[1,0.5]];portConstraint=eastwest;whiteSpace=wrap;html=1;" parent="QzoHPegy9wZRgAVX_BEd-144" vertex="1">
          <mxGeometry y="78" width="180" height="26" as="geometry" />
        </mxCell>
        <mxCell id="QzoHPegy9wZRgAVX_BEd-148" value="+ querys: any[]" style="text;strokeColor=none;fillColor=none;align=left;verticalAlign=top;spacingLeft=4;spacingRight=4;overflow=hidden;rotatable=0;points=[[0,0.5],[1,0.5]];portConstraint=eastwest;whiteSpace=wrap;html=1;" parent="QzoHPegy9wZRgAVX_BEd-144" vertex="1">
          <mxGeometry y="104" width="180" height="26" as="geometry" />
        </mxCell>
        <mxCell id="QzoHPegy9wZRgAVX_BEd-149" value="+ paths: any[]" style="text;strokeColor=none;fillColor=none;align=left;verticalAlign=top;spacingLeft=4;spacingRight=4;overflow=hidden;rotatable=0;points=[[0,0.5],[1,0.5]];portConstraint=eastwest;whiteSpace=wrap;html=1;" parent="QzoHPegy9wZRgAVX_BEd-144" vertex="1">
          <mxGeometry y="130" width="180" height="26" as="geometry" />
        </mxCell>
      </root>
    </mxGraphModel>
  </diagram>
  <diagram id="XjFodA7t2IhZF4sD4cq1" name="JDozerFuzzer-backend">
    <mxGraphModel dx="1434" dy="879" grid="1" gridSize="10" guides="1" tooltips="1" connect="1" arrows="1" fold="1" page="1" pageScale="1" pageWidth="850" pageHeight="1100" math="0" shadow="0">
      <root>
        <mxCell id="0" />
        <mxCell id="1" parent="0" />
        <mxCell id="HMZZYBwQS7-IllaCTGYg-1" value="Paths" style="swimlane;fontStyle=0;childLayout=stackLayout;horizontal=1;startSize=30;horizontalStack=0;resizeParent=1;resizeParentMax=0;resizeLast=0;collapsible=1;marginBottom=0;whiteSpace=wrap;html=1;" parent="1" vertex="1">
          <mxGeometry x="110" y="90" width="140" height="120" as="geometry" />
        </mxCell>
        <mxCell id="HMZZYBwQS7-IllaCTGYg-2" value="GET /" style="text;strokeColor=none;fillColor=none;align=left;verticalAlign=middle;spacingLeft=4;spacingRight=4;overflow=hidden;points=[[0,0.5],[1,0.5]];portConstraint=eastwest;rotatable=0;whiteSpace=wrap;html=1;" parent="HMZZYBwQS7-IllaCTGYg-1" vertex="1">
          <mxGeometry y="30" width="140" height="30" as="geometry" />
        </mxCell>
        <mxCell id="HMZZYBwQS7-IllaCTGYg-3" value="Item 2" style="text;strokeColor=none;fillColor=none;align=left;verticalAlign=middle;spacingLeft=4;spacingRight=4;overflow=hidden;points=[[0,0.5],[1,0.5]];portConstraint=eastwest;rotatable=0;whiteSpace=wrap;html=1;" parent="HMZZYBwQS7-IllaCTGYg-1" vertex="1">
          <mxGeometry y="60" width="140" height="30" as="geometry" />
        </mxCell>
        <mxCell id="HMZZYBwQS7-IllaCTGYg-4" value="Item 3" style="text;strokeColor=none;fillColor=none;align=left;verticalAlign=middle;spacingLeft=4;spacingRight=4;overflow=hidden;points=[[0,0.5],[1,0.5]];portConstraint=eastwest;rotatable=0;whiteSpace=wrap;html=1;" parent="HMZZYBwQS7-IllaCTGYg-1" vertex="1">
          <mxGeometry y="90" width="140" height="30" as="geometry" />
        </mxCell>
        <mxCell id="HMZZYBwQS7-IllaCTGYg-6" value="Fuzzer" style="swimlane;fontStyle=0;childLayout=stackLayout;horizontal=1;startSize=30;horizontalStack=0;resizeParent=1;resizeParentMax=0;resizeLast=0;collapsible=1;marginBottom=0;whiteSpace=wrap;html=1;" parent="1" vertex="1">
          <mxGeometry x="550" y="70" width="140" height="120" as="geometry" />
        </mxCell>
        <mxCell id="HMZZYBwQS7-IllaCTGYg-7" value="id: UUID" style="text;strokeColor=none;fillColor=none;align=left;verticalAlign=middle;spacingLeft=4;spacingRight=4;overflow=hidden;points=[[0,0.5],[1,0.5]];portConstraint=eastwest;rotatable=0;whiteSpace=wrap;html=1;" parent="HMZZYBwQS7-IllaCTGYg-6" vertex="1">
          <mxGeometry y="30" width="140" height="30" as="geometry" />
        </mxCell>
        <mxCell id="HMZZYBwQS7-IllaCTGYg-8" value="name" style="text;strokeColor=none;fillColor=none;align=left;verticalAlign=middle;spacingLeft=4;spacingRight=4;overflow=hidden;points=[[0,0.5],[1,0.5]];portConstraint=eastwest;rotatable=0;whiteSpace=wrap;html=1;" parent="HMZZYBwQS7-IllaCTGYg-6" vertex="1">
          <mxGeometry y="60" width="140" height="30" as="geometry" />
        </mxCell>
        <mxCell id="HMZZYBwQS7-IllaCTGYg-9" value="req: []" style="text;strokeColor=none;fillColor=none;align=left;verticalAlign=middle;spacingLeft=4;spacingRight=4;overflow=hidden;points=[[0,0.5],[1,0.5]];portConstraint=eastwest;rotatable=0;whiteSpace=wrap;html=1;" parent="HMZZYBwQS7-IllaCTGYg-6" vertex="1">
          <mxGeometry y="90" width="140" height="30" as="geometry" />
        </mxCell>
      </root>
    </mxGraphModel>
  </diagram>
  <diagram id="BaSV66Aq0-UppgXPEAn6" name="JDozzer-Fuzzer-frontend">
    <mxGraphModel dx="2284" dy="1943" grid="1" gridSize="10" guides="1" tooltips="1" connect="1" arrows="1" fold="1" page="1" pageScale="1" pageWidth="850" pageHeight="1100" math="0" shadow="0">
      <root>
        <mxCell id="0" />
        <mxCell id="1" parent="0" />
        <mxCell id="YrLjpEyxzR7agodePDNm-1" value="Fuzzer" style="swimlane;fontStyle=0;childLayout=stackLayout;horizontal=1;startSize=30;horizontalStack=0;resizeParent=1;resizeParentMax=0;resizeLast=0;collapsible=1;marginBottom=0;whiteSpace=wrap;html=1;" vertex="1" parent="1">
          <mxGeometry x="-20" y="90" width="140" height="120" as="geometry" />
        </mxCell>
        <mxCell id="YrLjpEyxzR7agodePDNm-2" value="Test 1" style="text;strokeColor=none;fillColor=none;align=left;verticalAlign=middle;spacingLeft=4;spacingRight=4;overflow=hidden;points=[[0,0.5],[1,0.5]];portConstraint=eastwest;rotatable=0;whiteSpace=wrap;html=1;" vertex="1" parent="YrLjpEyxzR7agodePDNm-1">
          <mxGeometry y="30" width="140" height="30" as="geometry" />
        </mxCell>
        <mxCell id="YrLjpEyxzR7agodePDNm-3" value="Test 2" style="text;strokeColor=none;fillColor=none;align=left;verticalAlign=middle;spacingLeft=4;spacingRight=4;overflow=hidden;points=[[0,0.5],[1,0.5]];portConstraint=eastwest;rotatable=0;whiteSpace=wrap;html=1;" vertex="1" parent="YrLjpEyxzR7agodePDNm-1">
          <mxGeometry y="60" width="140" height="30" as="geometry" />
        </mxCell>
        <mxCell id="YrLjpEyxzR7agodePDNm-4" value="Test 3" style="text;strokeColor=none;fillColor=none;align=left;verticalAlign=middle;spacingLeft=4;spacingRight=4;overflow=hidden;points=[[0,0.5],[1,0.5]];portConstraint=eastwest;rotatable=0;whiteSpace=wrap;html=1;" vertex="1" parent="YrLjpEyxzR7agodePDNm-1">
          <mxGeometry y="90" width="140" height="30" as="geometry" />
        </mxCell>
        <mxCell id="YrLjpEyxzR7agodePDNm-5" value="Fuzzer StatusCode" style="swimlane;fontStyle=0;childLayout=stackLayout;horizontal=1;startSize=30;horizontalStack=0;resizeParent=1;resizeParentMax=0;resizeLast=0;collapsible=1;marginBottom=0;whiteSpace=wrap;html=1;" vertex="1" parent="1">
          <mxGeometry x="-10" y="340" width="140" height="120" as="geometry" />
        </mxCell>
        <mxCell id="YrLjpEyxzR7agodePDNm-6" value="Operation" style="text;strokeColor=none;fillColor=none;align=left;verticalAlign=middle;spacingLeft=4;spacingRight=4;overflow=hidden;points=[[0,0.5],[1,0.5]];portConstraint=eastwest;rotatable=0;whiteSpace=wrap;html=1;" vertex="1" parent="YrLjpEyxzR7agodePDNm-5">
          <mxGeometry y="30" width="140" height="30" as="geometry" />
        </mxCell>
        <mxCell id="YrLjpEyxzR7agodePDNm-8" value="Path" style="text;strokeColor=none;fillColor=none;align=left;verticalAlign=middle;spacingLeft=4;spacingRight=4;overflow=hidden;points=[[0,0.5],[1,0.5]];portConstraint=eastwest;rotatable=0;whiteSpace=wrap;html=1;" vertex="1" parent="YrLjpEyxzR7agodePDNm-5">
          <mxGeometry y="60" width="140" height="30" as="geometry" />
        </mxCell>
        <mxCell id="YrLjpEyxzR7agodePDNm-7" value="StatusCode" style="text;strokeColor=none;fillColor=none;align=left;verticalAlign=middle;spacingLeft=4;spacingRight=4;overflow=hidden;points=[[0,0.5],[1,0.5]];portConstraint=eastwest;rotatable=0;whiteSpace=wrap;html=1;" vertex="1" parent="YrLjpEyxzR7agodePDNm-5">
          <mxGeometry y="90" width="140" height="30" as="geometry" />
        </mxCell>
        <mxCell id="YrLjpEyxzR7agodePDNm-9" value="Fuzzing Response" style="swimlane;fontStyle=0;childLayout=stackLayout;horizontal=1;startSize=30;horizontalStack=0;resizeParent=1;resizeParentMax=0;resizeLast=0;collapsible=1;marginBottom=0;whiteSpace=wrap;html=1;" vertex="1" parent="1">
          <mxGeometry x="380" y="390" width="140" height="150" as="geometry" />
        </mxCell>
        <mxCell id="YrLjpEyxzR7agodePDNm-10" value="responsePayload" style="text;strokeColor=none;fillColor=none;align=left;verticalAlign=middle;spacingLeft=4;spacingRight=4;overflow=hidden;points=[[0,0.5],[1,0.5]];portConstraint=eastwest;rotatable=0;whiteSpace=wrap;html=1;" vertex="1" parent="YrLjpEyxzR7agodePDNm-9">
          <mxGeometry y="30" width="140" height="30" as="geometry" />
        </mxCell>
        <mxCell id="YrLjpEyxzR7agodePDNm-11" value="Code Status" style="text;strokeColor=none;fillColor=none;align=left;verticalAlign=middle;spacingLeft=4;spacingRight=4;overflow=hidden;points=[[0,0.5],[1,0.5]];portConstraint=eastwest;rotatable=0;whiteSpace=wrap;html=1;" vertex="1" parent="YrLjpEyxzR7agodePDNm-9">
          <mxGeometry y="60" width="140" height="30" as="geometry" />
        </mxCell>
        <mxCell id="YrLjpEyxzR7agodePDNm-12" value="responsePayloadValid" style="text;strokeColor=none;fillColor=none;align=left;verticalAlign=middle;spacingLeft=4;spacingRight=4;overflow=hidden;points=[[0,0.5],[1,0.5]];portConstraint=eastwest;rotatable=0;whiteSpace=wrap;html=1;" vertex="1" parent="YrLjpEyxzR7agodePDNm-9">
          <mxGeometry y="90" width="140" height="30" as="geometry" />
        </mxCell>
        <mxCell id="YrLjpEyxzR7agodePDNm-13" value="responsePayloadErrors" style="text;strokeColor=none;fillColor=none;align=left;verticalAlign=middle;spacingLeft=4;spacingRight=4;overflow=hidden;points=[[0,0.5],[1,0.5]];portConstraint=eastwest;rotatable=0;whiteSpace=wrap;html=1;" vertex="1" parent="YrLjpEyxzR7agodePDNm-9">
          <mxGeometry y="120" width="140" height="30" as="geometry" />
        </mxCell>
        <mxCell id="YrLjpEyxzR7agodePDNm-14" style="edgeStyle=orthogonalEdgeStyle;rounded=0;orthogonalLoop=1;jettySize=auto;html=1;entryX=0.5;entryY=0;entryDx=0;entryDy=0;" edge="1" parent="1" source="YrLjpEyxzR7agodePDNm-2" target="YrLjpEyxzR7agodePDNm-5">
          <mxGeometry relative="1" as="geometry" />
        </mxCell>
        <mxCell id="YrLjpEyxzR7agodePDNm-15" style="edgeStyle=orthogonalEdgeStyle;rounded=0;orthogonalLoop=1;jettySize=auto;html=1;entryX=0.5;entryY=0;entryDx=0;entryDy=0;" edge="1" parent="1" source="YrLjpEyxzR7agodePDNm-7" target="YrLjpEyxzR7agodePDNm-9">
          <mxGeometry relative="1" as="geometry" />
        </mxCell>
        <mxCell id="YrLjpEyxzR7agodePDNm-16" value="Fuzzing Details" style="swimlane;fontStyle=0;childLayout=stackLayout;horizontal=1;startSize=30;horizontalStack=0;resizeParent=1;resizeParentMax=0;resizeLast=0;collapsible=1;marginBottom=0;whiteSpace=wrap;html=1;" vertex="1" parent="1">
          <mxGeometry x="610" y="620" width="140" height="150" as="geometry" />
        </mxCell>
        <mxCell id="YrLjpEyxzR7agodePDNm-17" value="reqParams" style="text;strokeColor=none;fillColor=none;align=left;verticalAlign=middle;spacingLeft=4;spacingRight=4;overflow=hidden;points=[[0,0.5],[1,0.5]];portConstraint=eastwest;rotatable=0;whiteSpace=wrap;html=1;" vertex="1" parent="YrLjpEyxzR7agodePDNm-16">
          <mxGeometry y="30" width="140" height="30" as="geometry" />
        </mxCell>
        <mxCell id="YrLjpEyxzR7agodePDNm-18" value="reqPayload" style="text;strokeColor=none;fillColor=none;align=left;verticalAlign=middle;spacingLeft=4;spacingRight=4;overflow=hidden;points=[[0,0.5],[1,0.5]];portConstraint=eastwest;rotatable=0;whiteSpace=wrap;html=1;" vertex="1" parent="YrLjpEyxzR7agodePDNm-16">
          <mxGeometry y="60" width="140" height="30" as="geometry" />
        </mxCell>
        <mxCell id="YrLjpEyxzR7agodePDNm-20" value="resHeaders" style="text;strokeColor=none;fillColor=none;align=left;verticalAlign=middle;spacingLeft=4;spacingRight=4;overflow=hidden;points=[[0,0.5],[1,0.5]];portConstraint=eastwest;rotatable=0;whiteSpace=wrap;html=1;" vertex="1" parent="YrLjpEyxzR7agodePDNm-16">
          <mxGeometry y="90" width="140" height="30" as="geometry" />
        </mxCell>
        <mxCell id="YrLjpEyxzR7agodePDNm-19" value="resPayload" style="text;strokeColor=none;fillColor=none;align=left;verticalAlign=middle;spacingLeft=4;spacingRight=4;overflow=hidden;points=[[0,0.5],[1,0.5]];portConstraint=eastwest;rotatable=0;whiteSpace=wrap;html=1;" vertex="1" parent="YrLjpEyxzR7agodePDNm-16">
          <mxGeometry y="120" width="140" height="30" as="geometry" />
        </mxCell>
        <mxCell id="YrLjpEyxzR7agodePDNm-21" style="edgeStyle=orthogonalEdgeStyle;rounded=0;orthogonalLoop=1;jettySize=auto;html=1;entryX=0.5;entryY=0;entryDx=0;entryDy=0;" edge="1" parent="1" source="YrLjpEyxzR7agodePDNm-10" target="YrLjpEyxzR7agodePDNm-16">
          <mxGeometry relative="1" as="geometry" />
        </mxCell>
        <mxCell id="DN7EN4qTRZvIhJYDub7C-1" value="GET: /fuzzer/owner/:owner&lt;br&gt;getFuzzerByOwner(:UUID)" style="shape=note;whiteSpace=wrap;html=1;backgroundOutline=1;darkOpacity=0.05;" vertex="1" parent="1">
          <mxGeometry x="-190" y="40" width="150" height="100" as="geometry" />
        </mxCell>
        <mxCell id="DN7EN4qTRZvIhJYDub7C-3" value="&lt;div&gt;&lt;span style=&quot;font-family: &amp;quot;Courier New&amp;quot;;&quot;&gt;&lt;b&gt;GET: /fuzzing/:fuzzerId/:operation/:statusCode&lt;/b&gt;&lt;/span&gt;&lt;font face=&quot;Courier New&quot;&gt;&lt;br&gt;&lt;/font&gt;&lt;/div&gt;&lt;font face=&quot;Courier New&quot;&gt;// GET: /fuzzer/:id/fuzzing/:operation/:statusCode&lt;br&gt;getFuzzingResponse(fuzzerId, operation, statusCode)&lt;/font&gt;" style="shape=note;whiteSpace=wrap;html=1;backgroundOutline=1;darkOpacity=0.05;" vertex="1" parent="1">
          <mxGeometry x="480" y="270" width="430" height="100" as="geometry" />
        </mxCell>
        <mxCell id="DN7EN4qTRZvIhJYDub7C-4" value="GET: /fuzzer/:id/fuzzing/req/:id&lt;br&gt;getFuzzing(fuzzerId, requestId)" style="shape=note;whiteSpace=wrap;html=1;backgroundOutline=1;darkOpacity=0.05;" vertex="1" parent="1">
          <mxGeometry x="770" y="590" width="280" height="100" as="geometry" />
        </mxCell>
        <mxCell id="DN7EN4qTRZvIhJYDub7C-12" value="Fuzzer" style="swimlane;whiteSpace=wrap;html=1;" vertex="1" parent="1">
          <mxGeometry x="-300" y="-20" width="510" height="550" as="geometry" />
        </mxCell>
        <mxCell id="DN7EN4qTRZvIhJYDub7C-2" value="GET: /fuzzer/:id&lt;br&gt;getFuzzer(UUID)" style="shape=note;whiteSpace=wrap;html=1;backgroundOutline=1;darkOpacity=0.05;" vertex="1" parent="DN7EN4qTRZvIhJYDub7C-12">
          <mxGeometry x="-40" y="80" width="120" height="120" as="geometry" />
        </mxCell>
        <mxCell id="DN7EN4qTRZvIhJYDub7C-13" value="GET: /fuzzing/:fuzzerId&lt;br&gt;getFuzzingFor(UUID)" style="shape=note;whiteSpace=wrap;html=1;backgroundOutline=1;darkOpacity=0.05;" vertex="1" parent="DN7EN4qTRZvIhJYDub7C-12">
          <mxGeometry x="40" y="370" width="190" height="110" as="geometry" />
        </mxCell>
      </root>
    </mxGraphModel>
  </diagram>
  <diagram id="_JF0YuBK1_n2zJni_Q1W" name="jdozer-fuzzer-engine">
    <mxGraphModel dx="1434" dy="1943" grid="1" gridSize="10" guides="1" tooltips="1" connect="1" arrows="1" fold="1" page="1" pageScale="1" pageWidth="850" pageHeight="1100" math="0" shadow="0">
      <root>
        <mxCell id="0" />
        <mxCell id="1" parent="0" />
        <mxCell id="g2Zii9_eK8Sv3_rUUsRK-30" style="edgeStyle=orthogonalEdgeStyle;rounded=0;orthogonalLoop=1;jettySize=auto;html=1;entryX=0;entryY=0.5;entryDx=0;entryDy=0;entryPerimeter=0;dashed=1;" edge="1" parent="1" source="g2Zii9_eK8Sv3_rUUsRK-8" target="g2Zii9_eK8Sv3_rUUsRK-10">
          <mxGeometry relative="1" as="geometry" />
        </mxCell>
        <mxCell id="g2Zii9_eK8Sv3_rUUsRK-2" value="&lt;font face=&quot;Courier New&quot;&gt;Docker&lt;/font&gt;" style="swimlane;whiteSpace=wrap;html=1;container=0;" vertex="1" parent="1">
          <mxGeometry x="100" y="80" width="530" height="550" as="geometry" />
        </mxCell>
        <mxCell id="g2Zii9_eK8Sv3_rUUsRK-10" value="&lt;div&gt;&lt;font face=&quot;Courier New&quot;&gt;// JavaScript&lt;/font&gt;&lt;/div&gt;&lt;font face=&quot;Courier New&quot;&gt;&lt;div&gt;&lt;font face=&quot;Courier New&quot;&gt;&lt;br&gt;&lt;/font&gt;&lt;/div&gt;beforeRequest()&lt;br&gt;afterResponse()&lt;br&gt;after()&lt;/font&gt;&lt;div&gt;&lt;font face=&quot;Courier New&quot;&gt;&lt;br&gt;&lt;/font&gt;&lt;/div&gt;&lt;div&gt;&lt;font face=&quot;Courier New&quot;&gt;mysqlConnect()&lt;/font&gt;&lt;/div&gt;&lt;div&gt;&lt;font face=&quot;Courier New&quot;&gt;redisConnect()&lt;/font&gt;&lt;/div&gt;&lt;div&gt;&lt;br&gt;&lt;/div&gt;" style="shape=note;whiteSpace=wrap;html=1;backgroundOutline=1;darkOpacity=0.05;align=left;spacing=15;dashed=1;" vertex="1" parent="1">
          <mxGeometry x="440" y="690" width="160" height="214" as="geometry" />
        </mxCell>
        <mxCell id="g2Zii9_eK8Sv3_rUUsRK-12" value="&lt;font face=&quot;Courier New&quot;&gt;/**&lt;/font&gt;&lt;div&gt;&lt;span style=&quot;background-color: initial; font-family: &amp;quot;Courier New&amp;quot;;&quot;&gt;&lt;br&gt;&lt;/span&gt;&lt;/div&gt;&lt;div&gt;&lt;span style=&quot;background-color: initial; font-family: &amp;quot;Courier New&amp;quot;;&quot;&gt;artillery.cfg.yaml&lt;br&gt;&lt;br&gt;Archivo de configuracón para [artillery], se ingresa al &quot;vuelo&quot; desde NestJS.&lt;/span&gt;&lt;/div&gt;&lt;div&gt;&lt;span style=&quot;background-color: initial; font-family: &amp;quot;Courier New&amp;quot;;&quot;&gt;&lt;br&gt;&lt;/span&gt;&lt;/div&gt;&lt;div&gt;&lt;span style=&quot;background-color: initial; font-family: &amp;quot;Courier New&amp;quot;;&quot;&gt;*/&lt;/span&gt;&lt;/div&gt;" style="shape=note;whiteSpace=wrap;html=1;backgroundOutline=1;darkOpacity=0.05;align=left;dashed=1;spacing=15;" vertex="1" parent="1">
          <mxGeometry x="560" y="-210" width="220" height="200" as="geometry" />
        </mxCell>
        <mxCell id="g2Zii9_eK8Sv3_rUUsRK-3" value="NestJS" style="swimlane;horizontal=0;whiteSpace=wrap;html=1;fillColor=#1ba1e2;fontColor=#ffffff;strokeColor=#006EAF;strokeWidth=2;fontFamily=Courier New;" vertex="1" parent="1">
          <mxGeometry x="165" y="160" width="395" height="120" as="geometry" />
        </mxCell>
        <mxCell id="g2Zii9_eK8Sv3_rUUsRK-1" value="POST:/jdozer/fuzzer/engine/:fuzzerId/:owner" style="rounded=0;whiteSpace=wrap;html=1;fontFamily=Courier New;" vertex="1" parent="g2Zii9_eK8Sv3_rUUsRK-3">
          <mxGeometry x="40" y="20" width="330" height="80" as="geometry" />
        </mxCell>
        <mxCell id="g2Zii9_eK8Sv3_rUUsRK-7" style="edgeStyle=orthogonalEdgeStyle;rounded=0;orthogonalLoop=1;jettySize=auto;html=1;entryX=0.5;entryY=0;entryDx=0;entryDy=0;exitX=0.5;exitY=1;exitDx=0;exitDy=0;strokeColor=#006EAF;strokeWidth=2;align=center;verticalAlign=middle;fontFamily=Helvetica;fontSize=12;fontColor=#ffffff;fontStyle=1;startSize=23;fillColor=#1ba1e2;" edge="1" parent="1" source="g2Zii9_eK8Sv3_rUUsRK-3" target="g2Zii9_eK8Sv3_rUUsRK-19">
          <mxGeometry relative="1" as="geometry">
            <mxPoint x="405" y="250" as="sourcePoint" />
            <mxPoint x="362.5" y="335" as="targetPoint" />
          </mxGeometry>
        </mxCell>
        <mxCell id="g2Zii9_eK8Sv3_rUUsRK-6" value="artillery aertillery.cfg.yaml" style="rounded=0;whiteSpace=wrap;html=1;fontFamily=Courier New;" vertex="1" parent="1">
          <mxGeometry x="215" y="365" width="280" height="60" as="geometry" />
        </mxCell>
        <mxCell id="g2Zii9_eK8Sv3_rUUsRK-8" value="JDozerFuzzerEnginer.js" style="rounded=0;whiteSpace=wrap;html=1;" vertex="1" parent="1">
          <mxGeometry x="215" y="445" width="280" height="60" as="geometry" />
        </mxCell>
        <mxCell id="g2Zii9_eK8Sv3_rUUsRK-19" value="&lt;font face=&quot;Courier New&quot;&gt;Artillery&lt;/font&gt;" style="swimlane;horizontal=0;whiteSpace=wrap;html=1;strokeColor=#006EAF;strokeWidth=2;align=center;verticalAlign=middle;fontFamily=Helvetica;fontSize=12;fontColor=#ffffff;fontStyle=1;fillColor=#1ba1e2;" vertex="1" parent="1">
          <mxGeometry x="165" y="340" width="395" height="200" as="geometry" />
        </mxCell>
        <mxCell id="g2Zii9_eK8Sv3_rUUsRK-20" value="&lt;font face=&quot;Courier New&quot;&gt;Binary&lt;/font&gt;" style="swimlane;whiteSpace=wrap;html=1;flipV=1;fillColor=#008a00;fontColor=#ffffff;strokeColor=#005700;strokeWidth=3;" vertex="1" parent="1">
          <mxGeometry x="130" y="320" width="470" height="270" as="geometry" />
        </mxCell>
        <mxCell id="g2Zii9_eK8Sv3_rUUsRK-27" style="edgeStyle=orthogonalEdgeStyle;rounded=0;orthogonalLoop=1;jettySize=auto;html=1;entryX=1;entryY=0.5;entryDx=0;entryDy=0;" edge="1" parent="1" source="g2Zii9_eK8Sv3_rUUsRK-22" target="g2Zii9_eK8Sv3_rUUsRK-1">
          <mxGeometry relative="1" as="geometry" />
        </mxCell>
        <mxCell id="g2Zii9_eK8Sv3_rUUsRK-26" style="edgeStyle=orthogonalEdgeStyle;rounded=0;orthogonalLoop=1;jettySize=auto;html=1;entryX=1;entryY=0.5;entryDx=0;entryDy=0;" edge="1" parent="1" source="g2Zii9_eK8Sv3_rUUsRK-23" target="g2Zii9_eK8Sv3_rUUsRK-8">
          <mxGeometry relative="1" as="geometry" />
        </mxCell>
        <mxCell id="g2Zii9_eK8Sv3_rUUsRK-25" style="edgeStyle=orthogonalEdgeStyle;rounded=0;orthogonalLoop=1;jettySize=auto;html=1;entryX=1;entryY=0.5;entryDx=0;entryDy=0;" edge="1" parent="1" source="g2Zii9_eK8Sv3_rUUsRK-24" target="g2Zii9_eK8Sv3_rUUsRK-8">
          <mxGeometry relative="1" as="geometry" />
        </mxCell>
        <mxCell id="g2Zii9_eK8Sv3_rUUsRK-28" value="" style="group" vertex="1" connectable="0" parent="1">
          <mxGeometry x="900" y="270" width="210" height="295" as="geometry" />
        </mxCell>
        <mxCell id="g2Zii9_eK8Sv3_rUUsRK-21" value="&lt;font face=&quot;Courier New&quot;&gt;Docker&lt;/font&gt;" style="swimlane;whiteSpace=wrap;html=1;" vertex="1" parent="g2Zii9_eK8Sv3_rUUsRK-28">
          <mxGeometry width="210" height="295" as="geometry" />
        </mxCell>
        <mxCell id="g2Zii9_eK8Sv3_rUUsRK-24" value="&lt;font&gt;dummy&lt;/font&gt;" style="rounded=0;whiteSpace=wrap;html=1;fontFamily=Courier New;" vertex="1" parent="g2Zii9_eK8Sv3_rUUsRK-21">
          <mxGeometry x="30" y="207.5" width="150" height="60" as="geometry" />
        </mxCell>
        <mxCell id="g2Zii9_eK8Sv3_rUUsRK-22" value="fuzzer" style="rounded=0;whiteSpace=wrap;html=1;fontFamily=Courier New;" vertex="1" parent="g2Zii9_eK8Sv3_rUUsRK-28">
          <mxGeometry x="30" y="55.5" width="150" height="60" as="geometry" />
        </mxCell>
        <mxCell id="g2Zii9_eK8Sv3_rUUsRK-23" value="operations" style="rounded=0;whiteSpace=wrap;html=1;fontFamily=Courier New;" vertex="1" parent="g2Zii9_eK8Sv3_rUUsRK-28">
          <mxGeometry x="30" y="130.5" width="150" height="60" as="geometry" />
        </mxCell>
        <mxCell id="g2Zii9_eK8Sv3_rUUsRK-29" style="edgeStyle=orthogonalEdgeStyle;rounded=0;orthogonalLoop=1;jettySize=auto;html=1;entryX=0.5;entryY=1;entryDx=0;entryDy=0;entryPerimeter=0;dashed=1;" edge="1" parent="1" source="g2Zii9_eK8Sv3_rUUsRK-6" target="g2Zii9_eK8Sv3_rUUsRK-12">
          <mxGeometry relative="1" as="geometry" />
        </mxCell>
      </root>
    </mxGraphModel>
  </diagram>
  <diagram id="wnEjaadxCMJbdEu-Vx2M" name="Arquitecture">
    <mxGraphModel dx="1434" dy="879" grid="1" gridSize="10" guides="1" tooltips="1" connect="1" arrows="1" fold="1" page="1" pageScale="1" pageWidth="850" pageHeight="1100" math="0" shadow="0">
      <root>
        <mxCell id="0" />
        <mxCell id="1" parent="0" />
        <mxCell id="BZD6kTKh0YKoFy-gDzYF-18" style="edgeStyle=orthogonalEdgeStyle;rounded=0;orthogonalLoop=1;jettySize=auto;html=1;entryX=0.5;entryY=0;entryDx=0;entryDy=0;" edge="1" parent="1" source="BZD6kTKh0YKoFy-gDzYF-1" target="BZD6kTKh0YKoFy-gDzYF-2">
          <mxGeometry relative="1" as="geometry" />
        </mxCell>
        <mxCell id="BZD6kTKh0YKoFy-gDzYF-21" value="POST" style="edgeLabel;html=1;align=center;verticalAlign=middle;resizable=0;points=[];" vertex="1" connectable="0" parent="BZD6kTKh0YKoFy-gDzYF-18">
          <mxGeometry x="0.2894" y="-3" relative="1" as="geometry">
            <mxPoint x="1" as="offset" />
          </mxGeometry>
        </mxCell>
        <mxCell id="BZD6kTKh0YKoFy-gDzYF-19" style="edgeStyle=orthogonalEdgeStyle;rounded=0;orthogonalLoop=1;jettySize=auto;html=1;entryX=0.5;entryY=0;entryDx=0;entryDy=0;" edge="1" parent="1" source="BZD6kTKh0YKoFy-gDzYF-1" target="BZD6kTKh0YKoFy-gDzYF-4">
          <mxGeometry relative="1" as="geometry" />
        </mxCell>
        <mxCell id="BZD6kTKh0YKoFy-gDzYF-22" value="GET" style="edgeLabel;html=1;align=center;verticalAlign=middle;resizable=0;points=[];" vertex="1" connectable="0" parent="BZD6kTKh0YKoFy-gDzYF-19">
          <mxGeometry x="0.287" y="1" relative="1" as="geometry">
            <mxPoint x="1" as="offset" />
          </mxGeometry>
        </mxCell>
        <mxCell id="BZD6kTKh0YKoFy-gDzYF-1" value="jdozzer-fuzzer-frontend-extjs" style="rounded=0;whiteSpace=wrap;html=1;fontFamily=Courier New;" vertex="1" parent="1">
          <mxGeometry x="293" y="40" width="265" height="60" as="geometry" />
        </mxCell>
        <mxCell id="BZD6kTKh0YKoFy-gDzYF-10" style="edgeStyle=orthogonalEdgeStyle;rounded=0;orthogonalLoop=1;jettySize=auto;html=1;entryX=0.5;entryY=0;entryDx=0;entryDy=0;" edge="1" parent="1" source="BZD6kTKh0YKoFy-gDzYF-2" target="BZD6kTKh0YKoFy-gDzYF-7">
          <mxGeometry relative="1" as="geometry" />
        </mxCell>
        <mxCell id="BZD6kTKh0YKoFy-gDzYF-13" style="edgeStyle=orthogonalEdgeStyle;rounded=0;orthogonalLoop=1;jettySize=auto;html=1;entryX=1;entryY=0.5;entryDx=0;entryDy=0;" edge="1" parent="1" source="BZD6kTKh0YKoFy-gDzYF-2" target="BZD6kTKh0YKoFy-gDzYF-4">
          <mxGeometry relative="1" as="geometry" />
        </mxCell>
        <mxCell id="BZD6kTKh0YKoFy-gDzYF-20" value="GET" style="edgeLabel;html=1;align=center;verticalAlign=middle;resizable=0;points=[];" vertex="1" connectable="0" parent="BZD6kTKh0YKoFy-gDzYF-13">
          <mxGeometry x="0.2" y="-1" relative="1" as="geometry">
            <mxPoint as="offset" />
          </mxGeometry>
        </mxCell>
        <mxCell id="BZD6kTKh0YKoFy-gDzYF-2" value="jdozzer-fuzzer-core" style="rounded=0;whiteSpace=wrap;html=1;fontFamily=Courier New;" vertex="1" parent="1">
          <mxGeometry x="480" y="300" width="265" height="60" as="geometry" />
        </mxCell>
        <mxCell id="BZD6kTKh0YKoFy-gDzYF-16" style="edgeStyle=orthogonalEdgeStyle;rounded=0;orthogonalLoop=1;jettySize=auto;html=1;entryX=0;entryY=0.5;entryDx=0;entryDy=0;" edge="1" parent="1" source="BZD6kTKh0YKoFy-gDzYF-3" target="BZD6kTKh0YKoFy-gDzYF-8">
          <mxGeometry relative="1" as="geometry" />
        </mxCell>
        <mxCell id="BZD6kTKh0YKoFy-gDzYF-3" value="jdozzer-fuzzer-engine" style="rounded=0;whiteSpace=wrap;html=1;fontFamily=Courier New;" vertex="1" parent="1">
          <mxGeometry x="480" y="630" width="265" height="60" as="geometry" />
        </mxCell>
        <mxCell id="BZD6kTKh0YKoFy-gDzYF-4" value="jdozzer-fuzzer-backend" style="rounded=0;whiteSpace=wrap;html=1;fontFamily=Courier New;" vertex="1" parent="1">
          <mxGeometry x="40" y="300" width="265" height="60" as="geometry" />
        </mxCell>
        <mxCell id="BZD6kTKh0YKoFy-gDzYF-5" value="jdozer-fuzzer&lt;br&gt;MySql" style="strokeWidth=2;html=1;shape=mxgraph.flowchart.database;whiteSpace=wrap;fontFamily=Courier New;verticalAlign=bottom;" vertex="1" parent="1">
          <mxGeometry x="118.75" y="510" width="107.5" height="50" as="geometry" />
        </mxCell>
        <mxCell id="BZD6kTKh0YKoFy-gDzYF-17" style="edgeStyle=orthogonalEdgeStyle;rounded=0;orthogonalLoop=1;jettySize=auto;html=1;entryX=0.5;entryY=0;entryDx=0;entryDy=0;" edge="1" parent="1" source="BZD6kTKh0YKoFy-gDzYF-6" target="BZD6kTKh0YKoFy-gDzYF-3">
          <mxGeometry relative="1" as="geometry" />
        </mxCell>
        <mxCell id="BZD6kTKh0YKoFy-gDzYF-6" value="jdozer-fuzzer" style="outlineConnect=0;dashed=0;verticalLabelPosition=bottom;verticalAlign=top;align=center;html=1;shape=mxgraph.aws3.redis;fillColor=#2E73B8;gradientColor=none;fontFamily=Courier New;" vertex="1" parent="1">
          <mxGeometry x="582.5" y="440" width="60" height="63" as="geometry" />
        </mxCell>
        <mxCell id="BZD6kTKh0YKoFy-gDzYF-14" style="edgeStyle=orthogonalEdgeStyle;rounded=0;orthogonalLoop=1;jettySize=auto;html=1;entryX=1;entryY=0.5;entryDx=0;entryDy=0;" edge="1" parent="1" source="BZD6kTKh0YKoFy-gDzYF-7" target="BZD6kTKh0YKoFy-gDzYF-3">
          <mxGeometry relative="1" as="geometry" />
        </mxCell>
        <mxCell id="BZD6kTKh0YKoFy-gDzYF-7" value="fuzzer-core&lt;br&gt;Kafka" style="shape=hexagon;perimeter=hexagonPerimeter2;whiteSpace=wrap;html=1;fixedSize=1;fontFamily=Courier New;" vertex="1" parent="1">
          <mxGeometry x="940" y="390" width="120" height="80" as="geometry" />
        </mxCell>
        <mxCell id="BZD6kTKh0YKoFy-gDzYF-8" value="fuzzer-engine&lt;br&gt;Kafka" style="shape=hexagon;perimeter=hexagonPerimeter2;whiteSpace=wrap;html=1;fixedSize=1;fontFamily=Courier New;" vertex="1" parent="1">
          <mxGeometry x="940" y="620" width="120" height="80" as="geometry" />
        </mxCell>
        <mxCell id="BZD6kTKh0YKoFy-gDzYF-11" style="edgeStyle=orthogonalEdgeStyle;rounded=0;orthogonalLoop=1;jettySize=auto;html=1;entryX=0.5;entryY=0;entryDx=0;entryDy=0;entryPerimeter=0;" edge="1" parent="1" source="BZD6kTKh0YKoFy-gDzYF-2" target="BZD6kTKh0YKoFy-gDzYF-6">
          <mxGeometry relative="1" as="geometry" />
        </mxCell>
        <mxCell id="BZD6kTKh0YKoFy-gDzYF-12" style="edgeStyle=orthogonalEdgeStyle;rounded=0;orthogonalLoop=1;jettySize=auto;html=1;entryX=0.5;entryY=0;entryDx=0;entryDy=0;entryPerimeter=0;" edge="1" parent="1" source="BZD6kTKh0YKoFy-gDzYF-4" target="BZD6kTKh0YKoFy-gDzYF-5">
          <mxGeometry relative="1" as="geometry" />
        </mxCell>
        <mxCell id="BZD6kTKh0YKoFy-gDzYF-15" style="edgeStyle=orthogonalEdgeStyle;rounded=0;orthogonalLoop=1;jettySize=auto;html=1;entryX=1;entryY=0.5;entryDx=0;entryDy=0;entryPerimeter=0;" edge="1" parent="1" source="BZD6kTKh0YKoFy-gDzYF-3" target="BZD6kTKh0YKoFy-gDzYF-5">
          <mxGeometry relative="1" as="geometry" />
        </mxCell>
      </root>
    </mxGraphModel>
  </diagram>
</mxfile>
